<?xml version="1.0" encoding="UTF-8"?>
<svg width="375px" height="177px" viewBox="0 0 375 177" version="1.1" xmlns="http://www.w3.org/2000/svg" xmlns:xlink="http://www.w3.org/1999/xlink">
    <title>Shape</title>
    <defs>
        <path d="M220.646959,20 C219.000563,20 217.349381,20.2000849 215.693412,20.6002546 C214.037444,21.0004244 212.44848,21.5567579 210.92652,22.2692553 C209.404561,22.9817526 207.978322,23.8260132 206.647804,24.8020369 C205.317286,25.7780607 204.159065,26.8419266 203.173142,27.9936346 C202.187218,29.1453427 201.411881,30.3653724 200.847128,31.6537237 C200.282376,32.9420751 200,34.249947 200,35.5773393 C200,36.6704859 200.138795,37.5879482 200.416385,38.3297263 C200.693975,39.0715043 201.096002,39.6668788 201.622466,40.1158498 C202.14893,40.5648207 202.804617,40.8917887 203.589527,41.0967537 C204.374437,41.3017187 205.274212,41.4042011 206.288851,41.4042011 C206.288851,41.2870783 206.245777,41.150435 206.159628,40.9942712 C206.07348,40.8381074 205.982545,40.618502 205.886824,40.3354551 C205.791104,40.0524082 205.700169,39.671759 205.61402,39.1935073 C205.527872,38.7152557 205.484797,38.0954806 205.484797,37.334182 C205.484797,35.0502864 205.862894,33.0103968 206.619088,31.214513 C207.375282,29.4186293 208.45214,27.8911521 209.849662,26.6320815 C211.247185,25.3730108 212.917511,24.4116274 214.860642,23.7479313 C216.803773,23.0842351 218.971847,22.752387 221.364865,22.752387 C222.513514,22.752387 223.494651,22.9231912 224.308277,23.2647995 C225.121903,23.6064078 225.787162,24.065139 226.304054,24.640993 C226.820946,25.216847 227.203829,25.8854233 227.452703,26.6467218 C227.701577,27.4080204 227.826014,28.2083599 227.826014,29.0477403 C227.826014,30.1994483 227.620214,31.3901973 227.208615,32.6199873 C226.797016,33.8497772 226.222691,34.9722045 225.485642,35.9872693 C224.748592,37.002334 223.867962,37.8417144 222.84375,38.5054106 C221.904889,39.1137987 220.881575,39.4433423 219.773807,39.4940413 L219.469595,39.5009548 L219.010135,39.5009548 L221.881757,25.6511776 L213.180743,26.8224061 L205.197635,64.975175 L213.640203,64.975175 L218.349662,42.3704647 C218.732545,42.2728623 219.086712,42.2094208 219.412162,42.18014 C219.737613,42.1508593 220.034347,42.136219 220.302365,42.136219 C220.953266,42.136219 221.508446,42.2338213 221.967905,42.4290261 C222.427365,42.6242309 222.791104,42.9023976 223.059122,43.2635264 C223.32714,43.6246552 223.523367,44.0541057 223.647804,44.5518778 C223.772241,45.0496499 223.834459,45.6011033 223.834459,46.2062381 C223.834459,47.3579461 223.671734,48.6365372 223.346284,50.0420115 C223.020833,51.4474857 222.661881,52.8676003 222.269426,54.3023552 C221.876971,55.7371101 221.518018,57.1230639 221.192568,58.4602164 C220.867117,59.797369 220.704392,60.9734776 220.704392,61.9885423 C220.704392,62.4570337 220.76661,62.9304053 220.891047,63.4086569 C221.015484,63.8869086 221.245214,64.316359 221.580236,64.6970083 C221.915259,65.0776575 222.379505,65.3899851 222.972973,65.6339911 C223.566441,65.877997 224.341779,66 225.298986,66 C226.00732,66 226.84009,65.9219181 227.797297,65.7657543 C228.754505,65.6095905 229.864865,65.3460641 231.128378,64.975175 C230.420045,64.7018884 229.860079,64.2089964 229.44848,63.496499 C229.036881,62.7840017 228.831081,61.9592616 228.831081,61.0222788 C228.831081,60.0657755 228.979448,58.9726289 229.276182,57.742839 C229.572917,56.513049 229.903153,55.2246976 230.266892,53.8777849 C230.630631,52.5308721 230.960867,51.1693189 231.257601,49.7931254 C231.554336,48.4169319 231.702703,47.1041799 231.702703,45.8548695 C231.702703,45.1521324 231.635698,44.4835561 231.501689,43.8491407 C231.36768,43.2147252 231.147523,42.6388712 230.841216,42.1215786 C230.53491,41.604286 230.118525,41.1553151 229.592061,40.7746658 C229.065597,40.3940165 228.419482,40.0865691 227.653716,39.8523234 C228.668356,39.2471886 229.568131,38.5395714 230.353041,37.7294717 C231.13795,36.9193719 231.803209,36.0653512 232.348818,35.1674093 C232.894426,34.2694674 233.306025,33.347125 233.583615,32.4003819 C233.861205,31.4536389 234,30.5215362 234,29.6040738 C234,28.3742839 233.736768,27.1835349 233.210304,26.0318269 C232.68384,24.8801188 231.875,23.8552939 230.783784,22.957352 C229.692568,22.0594101 228.309403,21.3420327 226.634291,20.8052196 C224.959178,20.2684065 222.963401,20 220.646959,20 Z M276.144928,33 L267.362319,34.1646952 C265.661836,37.1346679 264.004831,39.4349409 262.391304,41.0655141 C260.777778,42.6960874 259.207729,43.5599029 257.681159,43.6569609 C257.623188,37.4258417 255.091787,34.3102821 250.086957,34.3102821 C248.038647,34.3102821 246.222222,34.6742493 244.637681,35.4021838 C243.05314,36.1301183 241.666667,37.0861389 240.478261,38.2702457 C239.289855,39.4543524 238.285024,40.7986048 237.463768,42.3030027 C236.642512,43.8074007 235.975845,45.3457689 235.463768,46.9181074 C234.951691,48.4904459 234.57971,50.0191083 234.347826,51.5040946 C234.115942,52.989081 234,54.3139217 234,55.4786169 C234,57.1868365 234.236715,58.6378526 234.710145,59.8316652 C235.183575,61.0254777 235.84058,61.996057 236.681159,62.7434031 C237.521739,63.4907492 238.52657,64.0342736 239.695652,64.3739763 C240.864734,64.7136791 242.135266,64.8835305 243.507246,64.8835305 C245.323671,64.8835305 247.043478,64.4661814 248.666667,63.6314832 C250.289855,62.796785 251.729469,61.5981195 252.985507,60.0354868 C254.241546,58.4728541 255.270531,56.5705187 256.072464,54.3284804 C256.874396,52.0864422 257.371981,49.5677889 257.565217,46.7725205 C259.439614,46.2095845 261.207729,45.2584167 262.869565,43.9190173 C264.531401,42.5796178 266.086957,40.7840461 267.536232,38.5323021 C267.652174,40.3764028 267.763285,41.9778587 267.869565,43.3366697 C267.975845,44.6954807 268.077295,45.8844404 268.173913,46.9035487 C268.270531,47.922657 268.362319,48.8010312 268.449275,49.5386715 C268.536232,50.2763118 268.608696,50.9411586 268.666667,51.533212 C268.724638,52.1252654 268.772947,52.6736427 268.811594,53.1783439 C268.850242,53.6830452 268.869565,54.207158 268.869565,54.7506824 C268.869565,55.7989081 268.797101,56.6772824 268.652174,57.3858053 C268.507246,58.0943282 268.280193,58.6621171 267.971014,59.089172 C267.661836,59.5162269 267.270531,59.8219594 266.797101,60.0063694 C266.323671,60.1907795 265.758454,60.2829845 265.101449,60.2829845 C263.942029,60.2829845 263.082126,59.8898999 262.521739,59.1037307 C261.961353,58.3175614 261.681159,57.2256597 261.681159,55.8280255 C261.835749,56.1580224 262.057971,56.3715499 262.347826,56.4686078 C262.637681,56.5656658 262.94686,56.6141947 263.275362,56.6141947 C264.086957,56.6141947 264.763285,56.3472854 265.304348,55.8134668 C265.845411,55.2796482 266.115942,54.6439187 266.115942,53.9062784 C266.115942,52.236882 265.091787,51.4021838 263.043478,51.4021838 C262.521739,51.4021838 262.004831,51.533212 261.492754,51.7952684 C260.980676,52.0573248 260.521739,52.4309979 260.115942,52.9162875 C259.710145,53.4015772 259.381643,53.9984835 259.130435,54.7070064 C258.879227,55.4155293 258.753623,56.2065514 258.753623,57.0800728 C258.753623,57.9924173 258.850242,58.9193206 259.043478,59.8607825 C259.236715,60.8022445 259.63285,61.6515014 260.231884,62.4085532 C260.830918,63.1656051 261.666667,63.7867759 262.73913,64.2720655 C263.811594,64.7573552 265.236715,65 267.014493,65 C267.826087,65 268.642512,64.9320594 269.463768,64.7961783 C270.285024,64.6602972 271.072464,64.4322111 271.826087,64.1119199 C272.57971,63.7916288 273.289855,63.3742796 273.956522,62.8598726 C274.623188,62.3454656 275.217391,61.7097361 275.73913,60.9526843 C277.014493,60.1373976 278.357488,59.181377 279.768116,58.0846224 C280.050242,57.8652715 280.332367,57.6348559 280.614493,57.3933758 L280.81154,57.2194014 L280.840378,57.4869073 C280.948403,58.3852324 281.132045,59.1910828 281.391304,59.9044586 C281.835749,61.1273885 282.425121,62.1173794 283.15942,62.8744313 C283.89372,63.6314832 284.7343,64.1750076 285.681159,64.5050045 C286.628019,64.8350015 287.613527,65 288.637681,65 C289.681159,65 290.647343,64.8398544 291.536232,64.5195632 C292.425121,64.1992721 293.231884,63.7770701 293.956522,63.2529572 C294.681159,62.7288444 295.338164,62.136791 295.927536,61.4767971 C296.516908,60.8168032 297.033816,60.1471034 297.478261,59.4676979 C297.710145,61.2341523 298.328502,62.5978162 299.333333,63.5586897 C300.338164,64.5195632 301.661836,65 303.304348,65 C304.077295,65 304.748792,64.8786776 305.318841,64.6360328 C305.888889,64.3933879 306.396135,64.0245678 306.84058,63.5295723 C307.285024,63.0345769 307.690821,62.4085532 308.057971,61.6515014 C308.425121,60.8944495 308.811594,60.0015165 309.217391,58.9727025 C309.043478,59.0697604 308.850242,59.1377009 308.637681,59.1765241 C308.425121,59.2153473 308.183575,59.2347589 307.913043,59.2347589 C307.082126,59.2347589 306.468599,59.0746133 306.072464,58.7543221 C305.676329,58.4340309 305.478261,57.8565362 305.478261,57.021838 C305.478261,56.7112527 305.497585,56.3958144 305.536232,56.0755232 C305.561997,55.8619958 305.600644,55.6463115 305.652174,55.4284703 L305.73913,55.100091 L310,34.8343949 L301.449275,34.8343949 L300.810705,38.0058443 L300.811594,37.5714286 C300.811594,36.7173188 300.429952,35.9990901 299.666667,35.4167425 C298.903382,34.8343949 297.681159,34.5432211 296,34.5432211 C294.280193,34.5432211 292.705314,34.8683652 291.275362,35.5186533 C289.845411,36.1689415 288.565217,37.0424628 287.434783,38.1392175 C286.304348,39.2359721 285.318841,40.4977252 284.478261,41.9244768 C283.637681,43.3512284 282.937198,44.8410676 282.376812,46.3939945 C281.816425,47.9469214 281.400966,49.4998483 281.130435,51.0527753 C280.927536,52.2174704 280.800725,53.3275705 280.75,54.3830755 L280.743273,54.5597967 L280.605072,54.66697 C280.283816,54.9120412 279.942029,55.1680315 279.57971,55.4349409 C278.855072,55.9687595 278.086957,56.458902 277.275362,56.9053685 C277.391304,56.2453746 277.449275,55.5077343 277.449275,54.6924477 C277.449275,54.0324537 277.434783,53.3967243 277.405797,52.7852593 C277.376812,52.1737944 277.328502,51.4943888 277.26087,50.7470428 C277.193237,49.9996967 277.120773,49.140734 277.043478,48.1701547 C276.966184,47.1995754 276.879227,46.0203215 276.782609,44.6323931 C276.68599,43.2444647 276.584541,41.6041856 276.478261,39.711556 C276.380837,37.9766454 276.279355,35.9522124 276.173812,33.638257 L276.144928,33 Z M173.131683,35 C171.428053,35 169.867987,35.3309433 168.451485,35.9928298 C167.034983,36.6547164 165.766832,37.5438177 164.64703,38.6601338 C163.527228,39.77645 162.55099,41.0607075 161.718317,42.5129063 C160.885644,43.9651052 160.191749,45.4815169 159.636634,47.0621415 C159.081518,48.6427661 158.669967,50.2233907 158.40198,51.8040153 C158.133993,53.3846399 158,54.8664755 158,56.249522 L158.002825,56.5996461 L158.03101,56.5411472 C158.219366,56.1286042 158.406,55.6929446 158.590911,55.2341683 L158.775248,54.7676864 L161.244554,54.7676864 L161.079105,55.2588655 C160.35856,57.3581984 159.591289,59.0791035 158.777289,60.4215806 L158.614387,60.6814511 L158.660396,60.8135755 C159.10066,62.0583174 159.684488,63.0659656 160.411881,63.8365201 C161.139274,64.6070746 161.971947,65.1602932 162.909901,65.4961759 C163.847855,65.8320586 164.824092,66 165.838614,66 C166.872277,66 167.829373,65.8369981 168.709901,65.5109943 C169.590429,65.1849904 170.389604,64.7552581 171.107426,64.2217973 C171.825248,63.6883365 172.476073,63.0857234 173.059901,62.4139579 C173.643729,61.7421925 174.155776,61.0605481 174.59604,60.3690249 C174.825743,62.1669853 175.438284,63.5549713 176.433663,64.5329828 C177.429043,65.5109943 178.740264,66 180.367327,66 C181.133003,66 181.798185,65.8765137 182.362871,65.6295411 C182.927558,65.3825685 183.430033,65.0071702 183.870297,64.5033461 C184.310561,63.999522 184.712541,63.3623327 185.076238,62.5917782 C185.439934,61.8212237 185.822772,60.9123646 186.224752,59.8652008 C186.052475,59.9639898 185.861056,60.0331421 185.650495,60.0726577 C185.439934,60.1121734 185.20066,60.1319312 184.932673,60.1319312 C184.109571,60.1319312 183.501815,59.9689293 183.109406,59.6429254 C182.716997,59.3169216 182.520792,58.7291268 182.520792,57.8795411 C182.520792,57.5634162 182.539934,57.2423518 182.578218,56.916348 C182.60374,56.6990121 182.642024,56.4794809 182.693069,56.2577544 L182.779208,55.9235182 L187,35.2963671 L178.529703,35.2963671 L177.897185,38.5243819 L177.89802,38.082218 C177.89802,37.2128744 177.519967,36.4818356 176.763861,35.8891013 C176.007756,35.2963671 174.79703,35 173.131683,35 Z M96.2871526,35 C94.5660184,35 92.9899236,35.3309433 91.5588682,35.9928298 C90.1278128,36.6547164 88.8466315,37.5438177 87.7153242,38.6601338 C86.5840169,39.77645 85.5977489,41.0607075 84.7565204,42.5129063 C83.9152919,43.9651052 83.2142682,45.4815169 82.6534491,47.0621415 C82.0926301,48.6427661 81.6768505,50.2233907 81.4061103,51.8040153 C81.1353701,53.3846399 81,54.8664755 81,56.249522 C81,58.0474825 81.2223937,59.5688337 81.6671812,60.8135755 C82.1119687,62.0583174 82.7017956,63.0659656 83.4366619,63.8365201 C84.1715282,64.6070746 85.0127567,65.1602932 85.9603474,65.4961759 C86.9079382,65.8320586 87.8942061,66 88.9191512,66 C89.9827734,66 90.9545374,65.8369981 91.8344431,65.5109943 C92.7143488,65.1849904 93.5120655,64.7601976 94.2275932,64.2366157 C94.9431209,63.7130338 95.5909635,63.1202996 96.1711211,62.458413 C96.7512787,61.7965264 97.2830898,61.1198215 97.7665545,60.4282983 C97.9792789,62.2657744 98.5836098,63.6537604 99.579547,64.5922562 C100.575484,65.5307521 101.914681,66 103.597138,66 C104.11928,66 104.699438,65.9506055 105.337611,65.8518164 C105.975784,65.7530274 106.642966,65.5653282 107.339155,65.2887189 C108.035344,65.0121096 108.750872,64.6169535 109.485738,64.1032505 C110.128746,63.6537604 110.760649,63.0832537 111.381448,62.3917304 L111.453408,62.3081035 L113,54.8445206 L112.891263,55.22587 C112.705613,55.8312492 112.48902,56.4144997 112.241486,56.9756214 C111.932069,57.6770236 111.574305,58.2845762 111.168195,58.7982792 C110.762085,59.3119822 110.312462,59.7219567 109.819329,60.0282027 C109.326195,60.3344487 108.789549,60.4875717 108.209391,60.4875717 C106.58495,60.4875717 105.772729,59.6182282 105.772729,57.8795411 C105.772729,57.5634162 105.792068,57.2423518 105.830745,56.916348 C105.85653,56.6990121 105.895207,56.4794809 105.946777,56.2577544 L106.0338,55.9235182 L110.297959,35.2963671 L101.740634,35.2963671 L101.10154,38.5243819 L101.102461,38.082218 C101.102461,37.2128744 100.720524,36.4818356 99.9566494,35.8891013 C99.1927752,35.2963671 97.9696097,35 96.2871526,35 Z M339.667137,33 L330.692525,34.1646952 C329.744711,37.1152563 328.688293,40.0512587 327.523272,42.9727025 C326.358251,45.8941462 324.926657,48.8495602 323.228491,51.8389445 C322.813822,52.0330604 322.413963,52.2999697 322.028914,52.6396724 C321.643865,52.9793752 321.303244,53.3821656 321.007052,53.8480437 C320.71086,54.3139217 320.46897,54.8428875 320.281382,55.4349409 C320.093794,56.0269942 320,56.6724295 320,57.3712466 C320,58.2835911 320.172779,59.1910828 320.518336,60.0937216 C320.863893,60.9963603 321.401975,61.811647 322.132581,62.5395814 C322.863188,63.2675159 323.786319,63.8595693 324.901975,64.3157416 C326.01763,64.7719139 327.335684,65 328.856135,65 C329.685472,65 330.564175,64.9272066 331.492243,64.7816197 C332.42031,64.6360328 333.333568,64.3982408 334.232017,64.0682439 C335.130465,63.7382469 335.989422,63.3063391 336.808886,62.7725205 C337.62835,62.2387019 338.349083,61.5932666 338.971086,60.8362147 C339.593089,60.0791629 340.086742,59.1910828 340.452045,58.1719745 C340.817348,57.1528662 341,55.993024 341,54.6924477 C341,54.0324537 340.98519,53.3967243 340.955571,52.7852593 C340.925952,52.1737944 340.876587,51.4943888 340.807475,50.7470428 C340.738364,49.9996967 340.664316,49.140734 340.585331,48.1701547 C340.506347,47.1995754 340.417489,46.0203215 340.318759,44.6323931 C340.220028,43.2444647 340.116361,41.6041856 340.007757,39.711556 C339.908204,37.9766454 339.804503,35.9522124 339.696653,33.638257 L339.667137,33 Z M58.1152318,20 C56.6,20 55.0799117,20.2148438 53.5549669,20.6445312 C52.0300221,21.0742188 50.5633554,21.6699219 49.1549669,22.4316406 C47.7465784,23.1933594 46.4304636,24.0869141 45.2066225,25.1123047 C43.9827815,26.1376953 42.9192053,27.2412109 42.015894,28.4228516 C41.1125828,29.6044922 40.403532,30.8398438 39.8887417,32.1289062 C39.3739514,33.4179688 39.1165563,34.6972656 39.1165563,35.9667969 C39.1165563,36.9628906 39.2671082,37.8076172 39.5682119,38.5009766 C39.8693157,39.1943359 40.2966887,39.7558594 40.8503311,40.1855469 C41.4039735,40.6152344 42.0741722,40.9277344 42.8609272,41.1230469 C43.6476821,41.3183594 44.5267108,41.4160156 45.4980132,41.4160156 C45.4980132,41.2792969 45.4543046,41.1376953 45.3668874,40.9912109 C45.2794702,40.8447266 45.1871965,40.6298828 45.0900662,40.3466797 C44.992936,40.0634766 44.9006623,39.6826172 44.813245,39.2041016 C44.7258278,38.7255859 44.6821192,38.0859375 44.6821192,37.2851562 C44.6821192,33.828125 45.5174393,30.9619141 47.1880795,28.6865234 C48.7791654,26.5194847 50.9605212,24.932626 53.732147,23.9259473 L54.1523179,23.7792969 L39,65 L43.7788079,65 L53.7443709,37.9296875 L52.5496689,65 L60.7377483,65 L71.9562914,38.046875 L68.1390728,65 L76.7350993,65 L83,20.8496094 L74.4039735,20.8496094 L61.2622517,52.4609375 L62.6317881,20.8496094 C61.1165563,20.2832031 59.6110375,20 58.1152318,20 Z M330.841584,41 C330.960396,42.5604938 331.069307,43.9234568 331.168317,45.0888889 C331.267327,46.254321 331.361386,47.2814815 331.450495,48.1703704 C331.539604,49.0592593 331.618812,49.8395062 331.688119,50.5111111 C331.757426,51.182716 331.811881,51.7901235 331.851485,52.3333333 C331.891089,52.8765432 331.925743,53.3901235 331.955446,53.8740741 C331.985149,54.3580247 332,54.8567901 332,55.3703704 C332,56.437037 331.851485,57.3259259 331.554455,58.037037 C331.257426,58.7481481 330.861386,59.3259259 330.366337,59.7703704 C329.871287,60.2148148 329.306931,60.5308642 328.673267,60.7185185 C328.039604,60.9061728 327.386139,61 326.712871,61 C325.366337,61 324.410891,60.6493827 323.846535,59.9481481 C323.282178,59.2469136 323,58.1851852 323,56.762963 C323.158416,57.0987654 323.386139,57.3160494 323.683168,57.4148148 C323.980198,57.5135802 324.29703,57.562963 324.633663,57.562963 C325.049505,57.562963 325.420792,57.4790123 325.747525,57.3111111 C326.074257,57.1432099 326.356436,56.9160494 326.594059,56.6296296 C326.831683,56.3432099 327.009901,56.0222222 327.128713,55.6666667 C327.247525,55.3111111 327.306931,54.945679 327.306931,54.5703704 C327.306931,54.0567901 327.173267,53.6320988 326.905941,53.2962963 C326.638614,52.9604938 326.306931,52.6839506 325.910891,52.4666667 C326.920792,50.5111111 327.841584,48.6049383 328.673267,46.7481481 C329.50495,44.891358 330.227723,42.9753086 330.841584,41 Z M250.73913,38 C251.47343,38 252.009662,38.2619048 252.347826,38.7857143 C252.68599,39.3095238 252.903382,40.2237197 253,41.5283019 C251.879227,42.081761 251.318841,43.1392633 251.318841,44.7008086 C251.318841,46.163522 251.792271,47.0727763 252.73913,47.4285714 C252.507246,49.2075472 252.164251,50.8629829 251.710145,52.3948787 C251.256039,53.9267745 250.729469,55.2560647 250.130435,56.3827493 C249.531401,57.509434 248.879227,58.3939802 248.173913,59.0363881 C247.468599,59.678796 246.758454,60 246.043478,60 C245.483092,60 245.009662,59.9308176 244.623188,59.7924528 C244.236715,59.6540881 243.922705,59.4020665 243.681159,59.0363881 C243.439614,58.6707098 243.2657,58.1716083 243.15942,57.5390836 C243.05314,56.9065588 243,56.0862534 243,55.0781671 C243,54.0700809 243.091787,52.9483378 243.275362,51.712938 C243.458937,50.4775382 243.719807,49.2273136 244.057971,47.9622642 C244.396135,46.6972147 244.801932,45.4667565 245.275362,44.2708895 C245.748792,43.0750225 246.275362,42.0125786 246.855072,41.083558 C247.434783,40.1545373 248.05314,39.4083558 248.710145,38.8450135 C249.36715,38.2816712 250.043478,38 250.73913,38 Z M174.509434,38 C175.003594,38 175.408805,38.0825243 175.725067,38.2475728 C176.04133,38.4126214 176.293351,38.6165049 176.481132,38.8592233 C176.668913,39.1019417 176.802336,39.3543689 176.881402,39.6165049 C176.944654,39.8262136 176.982606,40.0079612 176.995256,40.1617476 L177,40.2718447 L174.09434,53.7281553 C173.896676,54.6019417 173.605121,55.368932 173.219677,56.0291262 C172.834232,56.6893204 172.409254,57.2378641 171.944744,57.6747573 C171.480234,58.1116505 170.995957,58.4417476 170.491914,58.6650485 C169.987871,58.8883495 169.508535,59 169.053908,59 C168.777179,59 168.460916,58.9708738 168.105121,58.9126214 C167.749326,58.8543689 167.418239,58.6747573 167.11186,58.3737864 C166.805481,58.0728155 166.543576,57.6116505 166.326146,56.9902913 C166.108715,56.368932 166,55.4854369 166,54.3398058 C166,53.407767 166.088949,52.3543689 166.266846,51.1796117 C166.444744,50.0048544 166.706649,48.8106796 167.052561,47.5970874 C167.398473,46.3834951 167.818509,45.2038835 168.312668,44.0582524 C168.806828,42.9126214 169.370171,41.8883495 170.002695,40.9854369 C170.63522,40.0825243 171.331986,39.3592233 172.092992,38.815534 C172.853998,38.2718447 173.659479,38 174.509434,38 Z M298.509434,38 C299.003594,38 299.408805,38.0825243 299.725067,38.2475728 C300.04133,38.4126214 300.293351,38.6165049 300.481132,38.8592233 C300.668913,39.1019417 300.802336,39.3543689 300.881402,39.6165049 C300.944654,39.8262136 300.982606,40.0079612 300.995256,40.1617476 L301,40.2718447 L298.09434,53.7281553 C297.896676,54.6019417 297.605121,55.368932 297.219677,56.0291262 C296.834232,56.6893204 296.409254,57.2378641 295.944744,57.6747573 C295.480234,58.1116505 294.995957,58.4417476 294.491914,58.6650485 C293.987871,58.8883495 293.508535,59 293.053908,59 C292.777179,59 292.460916,58.9708738 292.105121,58.9126214 C291.749326,58.8543689 291.418239,58.6747573 291.11186,58.3737864 C290.805481,58.0728155 290.543576,57.6116505 290.326146,56.9902913 C290.108715,56.368932 290,55.4854369 290,54.3398058 C290,53.407767 290.088949,52.3543689 290.266846,51.1796117 C290.444744,50.0048544 290.706649,48.8106796 291.052561,47.5970874 C291.398473,46.3834951 291.818509,45.2038835 292.312668,44.0582524 C292.806828,42.9126214 293.370171,41.8883495 294.002695,40.9854369 C294.63522,40.0825243 295.331986,39.3592233 296.092992,38.815534 C296.853998,38.2718447 297.659479,38 298.509434,38 Z M98.509434,38 C99.0035939,38 99.408805,38.0825243 99.7250674,38.2475728 C100.04133,38.4126214 100.293351,38.6165049 100.481132,38.8592233 C100.668913,39.1019417 100.802336,39.3543689 100.881402,39.6165049 C100.944654,39.8262136 100.982606,40.0079612 100.995256,40.1617476 L101,40.2718447 L98.0943396,53.7281553 C97.8966757,54.6019417 97.6051213,55.368932 97.2196765,56.0291262 C96.8342318,56.6893204 96.4092543,57.2378641 95.9447439,57.6747573 C95.4802336,58.1116505 94.9959569,58.4417476 94.4919137,58.6650485 C93.9878706,58.8883495 93.5085355,59 93.0539084,59 C92.7771788,59 92.4609164,58.9708738 92.1051213,58.9126214 C91.7493261,58.8543689 91.418239,58.6747573 91.1118598,58.3737864 C90.8054807,58.0728155 90.5435759,57.6116505 90.3261456,56.9902913 C90.1087152,56.368932 90,55.4854369 90,54.3398058 C90,53.407767 90.0889488,52.3543689 90.2668464,51.1796117 C90.4447439,50.0048544 90.7066487,48.8106796 91.0525606,47.5970874 C91.3984726,46.3834951 91.8185085,45.2038835 92.3126685,44.0582524 C92.8068284,42.9126214 93.3701707,41.8883495 94.0026954,40.9854369 C94.6352201,40.0825243 95.3319856,39.3592233 96.0929919,38.815534 C96.8539982,38.2718447 97.6594789,38 98.509434,38 Z M284,54 L283.612389,54.4485841 C282.837168,55.330455 282.061947,56.1205426 281.286726,56.818847 L281.079596,57 L281.067847,56.8864917 C281.033923,56.5212074 281.012721,56.140268 281.00424,55.7436736 L281,55.3418608 C281,55.1853104 281.001936,55.0273622 281.005808,54.8680162 L281.017069,54.5486672 L281.178466,54.4249226 C281.27237,54.3518657 281.364184,54.2799271 281.453909,54.2091066 L281.716814,54 L284,54 Z M319.900356,20 C319.330961,20 318.809015,20.100616 318.33452,20.301848 C317.860024,20.5030801 317.451957,20.7857632 317.11032,21.1498973 C316.768683,21.5140315 316.498221,21.9500342 316.298932,22.4579055 C316.099644,22.9657769 316,23.5167693 316,24.110883 C316,24.8774812 316.147094,25.4859685 316.441281,25.936345 C316.735469,26.3867214 317.058126,26.7652293 317.409253,27.0718686 C317.76038,27.3785079 318.083037,27.661191 318.377224,27.9199179 C318.671412,28.1786448 318.818505,28.4996578 318.818505,28.8829569 C318.818505,29.3620808 318.586002,29.9753593 318.120996,30.7227926 C317.707658,31.3871777 317.148104,32.0969909 316.442336,32.8522321 L316.170819,33.137577 L317.053381,34 C318.135231,33.2908966 319.103203,32.5147159 319.957295,31.6714579 C320.811388,30.8281999 321.537367,29.9753593 322.135231,29.1129363 C322.733096,28.2505133 323.193357,27.3880903 323.516014,26.5256674 C323.838671,25.6632444 324,24.8583162 324,24.110883 C324,23.5167693 323.900356,22.9657769 323.701068,22.4579055 C323.501779,21.9500342 323.217082,21.5140315 322.846975,21.1498973 C322.476868,20.7857632 322.040332,20.5030801 321.537367,20.301848 C321.034401,20.100616 320.488731,20 319.900356,20 Z M157.999005,60.6814511 L158,60.6804395 L157.938632,60.4966274 C157.597217,59.4209245 157.41099,58.1531319 157.379952,56.6932494 L157.378165,56.5996461 L157.21498,56.9459847 C156.894346,57.6078713 156.539706,58.1759082 156.151059,58.6500956 C155.762412,59.124283 155.325184,59.4898024 154.839375,59.7466539 C154.353567,60.0035054 153.790029,60.1319312 153.148761,60.1319312 C152.235441,60.1319312 151.608748,59.8948375 151.268682,59.4206501 C150.928615,58.9464627 150.758582,58.3339707 150.758582,57.583174 C150.758582,57.0101976 150.831454,56.3433716 150.977196,55.582696 C151.122939,54.8220204 151.29783,53.9971319 151.50187,53.1080306 C151.705909,52.2189293 151.934239,51.2903123 152.18686,50.3221797 C152.43948,49.3540472 152.667811,48.3809751 152.87185,47.4029637 C153.07589,46.4249522 153.250781,45.4666985 153.396524,44.5282027 C153.542266,43.5897068 153.615137,42.7154238 153.615137,41.9053537 C153.615137,40.7001275 153.449963,39.6628426 153.119613,38.793499 C152.789263,37.9241555 152.327744,37.2128744 151.735058,36.6596558 C151.142371,36.1064372 150.442807,35.7014022 149.636364,35.4445507 C148.829922,35.1876992 147.950608,35.0592734 146.998423,35.0592734 C146.454318,35.0592734 145.851915,35.1185468 145.191215,35.2370937 C144.530515,35.3556405 143.840667,35.5927342 143.12167,35.9483748 C142.402673,36.3040153 141.664244,36.8226577 140.906382,37.5043021 C140.148521,38.1859465 139.410092,39.0898662 138.691095,40.2160612 C138.535636,39.2676864 138.273299,38.4625558 137.904085,37.8006692 C137.53487,37.1387827 137.087926,36.6003824 136.563253,36.1854685 C136.038579,35.7705545 135.436177,35.4692479 134.756044,35.2815488 C134.075912,35.0938496 133.347199,35 132.569905,35 C132.045232,35 131.49141,35.0444551 130.90844,35.1333652 C130.325469,35.2222753 129.723067,35.3902167 129.101231,35.6371893 C128.479396,35.8841619 127.847845,36.2299235 127.206578,36.6744742 C126.65692,37.0555176 126.107262,37.5418016 125.557604,38.1333262 L125.282775,38.4378585 L125.924043,35.2963671 L117.325229,35.2963671 L113.250756,54.8414858 L113.273585,54.7676864 L115.780357,54.7676864 L115.590712,55.3062696 C115.080193,56.7210262 114.531289,57.9640606 113.944001,59.0353728 C113.365888,60.0899458 112.769179,61.0008116 112.153872,61.7679702 L111.88903,62.0879541 L111.694675,62.3081035 L111,65.6443595 L119.598814,65.6443595 L123.650458,46.1730402 C123.883646,45.4024857 124.155699,44.6714468 124.466617,43.9799235 C124.777534,43.2884003 125.132175,42.6857871 125.530538,42.1720841 C125.928901,41.6583811 126.375845,41.2533461 126.87137,40.956979 C127.366894,40.6606119 127.906142,40.5124283 128.489113,40.5124283 C128.838895,40.5124283 129.125522,40.5865201 129.348994,40.7347036 C129.572466,40.8828872 129.757073,41.0804653 129.902816,41.3274379 C130.048558,41.5744105 130.150578,41.8559592 130.208875,42.1720841 C130.267172,42.4882091 130.296321,42.8240918 130.296321,43.1797323 C130.296321,43.606501 130.259011,44.0143021 130.18439,44.4031358 L130.12143,44.6912046 L125.749152,65.6443595 L134.347965,65.6443595 L138.39961,46.1730402 C138.632798,45.4024857 138.904851,44.6763862 139.215768,43.9947419 C139.526686,43.3130975 139.876468,42.7203633 140.265115,42.2165392 C140.653762,41.7127151 141.081274,41.3126195 141.54765,41.0162524 C142.014026,40.7198853 142.519267,40.5717017 143.063373,40.5717017 C144.501367,40.5717017 145.220363,41.6089866 145.220363,43.6835564 C145.220363,44.651689 145.079479,45.8075207 144.79771,47.1510516 C144.515941,48.4945825 144.209881,49.887508 143.879532,51.3298279 C143.549182,52.7721479 143.243122,54.1798917 142.961353,55.5530593 C142.679584,56.9262269 142.5387,58.1265137 142.5387,59.1539197 C142.5387,60.0232632 142.660152,60.8679095 142.903056,61.6878585 C143.14596,62.5078075 143.539465,63.2388464 144.083571,63.8809751 C144.627677,64.5231039 145.346674,65.0368069 146.240562,65.4220841 C147.13445,65.8073614 148.242093,66 149.563493,66 C150.360219,66 151.229817,65.8814532 152.172286,65.6443595 C153.114755,65.4072658 154.076656,64.8985022 155.057989,64.1180688 C156.039323,63.3376354 157.01094,62.206501 157.972841,60.7246654 L157.986071,60.7016831 L157.999005,60.6814511 Z M4.54747351e-13,0 L375,0 L375,149.042239 C368.154847,143.051029 362.489751,134.895101 358.563904,125.313301 C350.185839,145.763551 333.884437,159.71874 315.097256,159.995798 L314.527192,160 L313.957119,159.995798 C295.545384,159.724272 279.521062,146.315846 271.001454,126.531495 L270.745587,125.930024 L270.488395,125.313 L270.232994,125.930024 C261.781697,146.045681 245.617452,159.724321 227.017345,159.995882 L226.452965,160 L225.882892,159.995798 C207.471157,159.724272 191.446835,146.315846 182.927228,126.531495 L182.67136,125.930024 L182.414125,125.313 L182.158767,125.930024 C173.70747,146.045681 157.543225,159.724321 138.943118,159.995882 L138.378738,160 L137.808665,159.995798 C119.39693,159.724272 103.372609,146.315846 94.8530007,126.531495 L94.5971332,125.930024 L94.3398541,125.313 L94.0845402,125.930024 C85.6332431,146.045681 69.4689982,159.724321 50.8688912,159.995882 L50.3045115,160 L49.7344385,159.995798 C31.3227033,159.724272 15.2983817,146.315846 6.7787739,126.531495 L6.52290637,125.930024 L6.26657825,125.313 L6.01031337,125.930024 C4.30626931,129.985966 2.28865468,133.780209 4.54747351e-13,137.25562" id="path-1"></path>
        <filter x="-6.8%" y="-15.9%" width="113.6%" height="131.9%" filterUnits="objectBoundingBox" id="filter-2">
            <feOffset dx="0" dy="0" in="SourceAlpha" result="shadowOffsetOuter1"></feOffset>
            <feGaussianBlur stdDeviation="8.5" in="shadowOffsetOuter1" result="shadowBlurOuter1"></feGaussianBlur>
            <feColorMatrix values="0 0 0 0 0.356862745   0 0 0 0 0.894117647   0 0 0 0 0.968627451  0 0 0 0.24 0" type="matrix" in="shadowBlurOuter1" result="shadowMatrixOuter1"></feColorMatrix>
            <feOffset dx="0" dy="1" in="SourceAlpha" result="shadowOffsetOuter2"></feOffset>
            <feGaussianBlur stdDeviation="0.5" in="shadowOffsetOuter2" result="shadowBlurOuter2"></feGaussianBlur>
            <feColorMatrix values="0 0 0 0 0.278141617   0 0 0 0 0.678852134   0 0 0 0 0.73394983  0 0 0 0.24 0" type="matrix" in="shadowBlurOuter2" result="shadowMatrixOuter2"></feColorMatrix>
            <feMerge>
                <feMergeNode in="shadowMatrixOuter1"></feMergeNode>
                <feMergeNode in="shadowMatrixOuter2"></feMergeNode>
            </feMerge>
        </filter>
    </defs>
    <g id="Page-1" stroke="none" stroke-width="1" fill="none" fill-rule="evenodd">
        <g id="Shape">
            <use fill="black" fill-opacity="1" filter="url(#filter-2)" xlink:href="#path-1"></use>
            <use fill="#D6162E" fill-rule="evenodd" xlink:href="#path-1"></use>
        </g>
    </g>
</svg>
