<?xml version="1.0" encoding="UTF-8"?>
<svg width="1440px" height="177px" viewBox="0 0 1440 177" version="1.1" xmlns="http://www.w3.org/2000/svg" xmlns:xlink="http://www.w3.org/1999/xlink">
    <title>Combined Shape</title>
    <defs>
        <path d="M1452,0 L1452,92.5619835 L1451.999,92.561 L1451.99916,158.625717 C1433.90393,157.689851 1418.26441,144.193628 1409.98851,124.587002 L1409.739,123.991 L1409.48232,124.608708 C1400.89912,144.927069 1384.40567,158.677686 1365.46841,158.677686 C1346.33986,158.677686 1329.70474,144.647875 1321.19609,123.991143 C1312.68812,144.647875 1296.053,158.677686 1276.92445,158.677686 C1257.7959,158.677686 1241.16079,144.647875 1232.65213,123.991143 C1224.14416,144.647875 1207.50904,158.677686 1188.38049,158.677686 C1169.25195,158.677686 1152.61683,144.647875 1144.10818,123.991143 C1135.6002,144.647875 1118.96508,158.677686 1099.83654,158.677686 C1080.90964,158.677686 1064.42388,144.942116 1055.83601,124.642204 C1047.41493,145.665806 1030.62752,160 1011.29258,160 C992.354968,160 975.861253,146.248869 967.277475,125.930024 L967.019,125.313 L966.762149,125.930024 C958.179956,146.248869 941.686241,160 922.748626,160 C903.620033,160 886.984878,145.970119 878.476245,125.313301 C869.968419,145.970119 853.333264,160 834.20467,160 C815.267056,160 798.773341,146.248869 790.189563,125.930024 L789.931,125.313 L789.674237,125.930024 C781.092044,146.248869 764.598328,160 745.660714,160 C726.7231,160 710.229385,146.248869 701.645607,125.930024 L701.387,125.313 L701.13028,125.930024 C692.548088,146.248869 676.054372,160 657.116758,160 C638.179144,160 621.685429,146.248869 613.101651,125.930024 L612.843,125.313 L612.586324,125.930024 C604.004132,146.248869 587.510416,160 568.572802,160 C549.635188,160 533.141473,146.248869 524.557695,125.930024 L524.3,125.313 L524.042368,125.930024 C515.460176,146.248869 498.96646,160 480.028846,160 C461.091232,160 444.597517,146.248869 436.013739,125.930024 L435.756,125.313 L435.498412,125.930024 C426.91622,146.248869 410.422504,160 391.48489,160 C372.547276,160 356.053561,146.248869 347.469783,125.930024 L347.212,125.313 L346.954456,125.930024 C338.372264,146.248869 321.878548,160 302.940934,160 C284.00332,160 267.509604,146.248869 258.925827,125.930024 L258.668,125.313 L258.4105,125.930024 C249.828308,146.248869 233.334592,160 214.396978,160 C195.459364,160 178.965648,146.248869 170.381871,125.930024 L170.124,125.313 L169.866544,125.930024 C161.284352,146.248869 144.790636,160 125.853022,160 C106.915408,160 90.4216924,146.248869 81.837915,125.930024 L81.58,125.313 L81.3225882,125.930024 C72.7403955,146.248869 56.2466801,160 37.3090659,160 C9.52413604,160 -13,130.398992 -13,93.8842975 C-13,93.4423658 -12.9967007,93.0014467 -12.9901327,92.5615806 L-13,92.5619835 L-13,0 L1452,0 Z M644.937012,25.25 C642.039551,25.25 642.039551,25.25 639.125244,25.9406738 C636.210938,26.6313477 636.210938,26.6313477 633.532471,27.861084 C630.854004,29.0908203 630.854004,29.0908203 628.512451,30.7753906 C626.170898,32.4599609 626.170898,32.4599609 624.435791,34.4477539 C622.700684,36.4355469 622.700684,36.4355469 621.706787,38.6591797 C620.712891,40.8828125 620.712891,40.8828125 620.712891,43.1738281 C620.712891,45.0605469 620.712891,45.0605469 621.201416,46.3408203 C621.689941,47.6210938 621.689941,47.6210938 622.616455,48.3959961 C623.542969,49.1708984 623.542969,49.1708984 624.924316,49.5246582 C626.305664,49.878418 626.305664,49.878418 628.091309,49.878418 C628.091309,49.6762695 628.091309,49.6762695 627.939697,49.4067383 C627.788086,49.137207 627.788086,49.137207 627.619629,48.6486816 C627.451172,48.1601562 627.451172,48.1601562 627.299561,47.3347168 C627.147949,46.5092773 627.147949,46.5092773 627.147949,45.1953125 C627.147949,41.253418 627.147949,41.253418 628.47876,38.1538086 C629.80957,35.0541992 629.80957,35.0541992 632.269043,32.8811035 C634.728516,30.7080078 634.728516,30.7080078 638.148193,29.5625 C641.567871,28.4169922 641.567871,28.4169922 645.779297,28.4169922 C647.800781,28.4169922 647.800781,28.4169922 649.232666,29.0065918 C650.664551,29.5961914 650.664551,29.5961914 651.574219,30.5900879 C652.483887,31.5839844 652.483887,31.5839844 652.921875,32.8979492 C653.359863,34.2119141 653.359863,34.2119141 653.359863,35.6606445 C653.359863,37.6484375 653.359863,37.6484375 652.635498,39.7709961 C651.911133,41.8935547 651.911133,41.8935547 650.614014,43.6455078 C649.316895,45.3974609 649.316895,45.3974609 647.514404,46.5429688 C645.850567,47.6003606 645.850567,47.6003606 643.885302,47.6816984 L643.555664,47.6884766 L643.016602,47.6884766 L646.385742,31.7524414 L636.177246,33.1000977 L626.811035,77 L636.716309,77 L642.241699,50.9902344 C642.915527,50.8217773 642.915527,50.8217773 643.488281,50.7712402 C644.061035,50.7207031 644.061035,50.7207031 644.532715,50.7207031 C645.678223,50.7207031 645.678223,50.7207031 646.486816,51.0576172 C647.29541,51.3945312 647.29541,51.3945312 647.76709,52.0178223 C648.23877,52.6411133 648.23877,52.6411133 648.457764,53.5002441 C648.676758,54.359375 648.676758,54.359375 648.676758,55.4038086 C648.676758,57.3916016 648.676758,57.3916016 648.104004,59.8173828 C647.53125,62.2431641 647.53125,62.2431641 646.840576,64.7194824 C646.149902,67.1958008 646.149902,67.1958008 645.577148,69.5036621 C645.004395,71.8115234 645.004395,71.8115234 645.004395,73.5634766 C645.004395,74.3720703 645.004395,74.3720703 645.223389,75.1975098 C645.442383,76.0229492 645.442383,76.0229492 646.031982,76.6799316 C646.621582,77.3369141 646.621582,77.3369141 647.666016,77.7580566 C648.710449,78.1791992 648.710449,78.1791992 650.39502,78.1791992 C651.641602,78.1791992 651.641602,78.1791992 653.326172,77.909668 C655.010742,77.6401367 655.010742,77.6401367 657.234375,77 C655.987793,76.5283203 655.987793,76.5283203 655.263428,75.298584 C654.539062,74.0688477 654.539062,74.0688477 654.539062,72.4516602 C654.539062,70.8007812 654.539062,70.8007812 655.061279,68.6782227 C655.583496,66.5556641 655.583496,66.5556641 656.223633,64.230957 C656.86377,61.90625 656.86377,61.90625 657.385986,59.5310059 C657.908203,57.1557617 657.908203,57.1557617 657.908203,54.9995117 C657.908203,53.7866211 657.908203,53.7866211 657.672363,52.6916504 C657.436523,51.5966797 657.436523,51.5966797 656.897461,50.7038574 C656.358398,49.8110352 656.358398,49.8110352 655.431885,49.1540527 C654.505371,48.4970703 654.505371,48.4970703 653.157715,48.0927734 C654.943359,47.0483398 654.943359,47.0483398 656.324707,45.6501465 C657.706055,44.2519531 657.706055,44.2519531 658.66626,42.7021484 C659.626465,41.1523438 659.626465,41.1523438 660.11499,39.5183105 C660.603516,37.8842773 660.603516,37.8842773 660.603516,36.3007812 C660.603516,34.1782227 660.603516,34.1782227 659.677002,32.1904297 C658.750488,30.2026367 658.750488,30.2026367 656.830078,28.652832 C654.909668,27.1030273 654.909668,27.1030273 651.96167,26.1765137 C649.013672,25.25 649.013672,25.25 644.937012,25.25 Z M930,41.8935547 C926.462402,41.8935547 926.462402,41.8935547 923.699707,43.1569824 C920.937012,44.4204102 920.937012,44.4204102 918.881836,46.4924316 C916.82666,48.5644531 916.82666,48.5644531 915.37793,51.1923828 C913.929199,53.8203125 913.929199,53.8203125 913.053223,56.5493164 C912.177246,59.2783203 912.177246,59.2783203 911.772949,61.8725586 C911.368652,64.4667969 911.368652,64.4667969 911.368652,66.4545898 C911.368652,69.3857422 911.368652,69.3857422 912.126709,71.4577637 C912.884766,73.5297852 912.884766,73.5297852 914.299805,74.84375 C915.714844,76.1577148 915.714844,76.1577148 917.702637,76.7810059 C919.69043,77.4042969 919.69043,77.4042969 922.149902,77.4042969 C925.552734,77.4042969 925.552734,77.4042969 928.399658,76.3093262 C931.246582,75.2143555 931.246582,75.2143555 933.588135,73.4287109 C935.669515,71.8414714 935.669515,71.8414714 937.37821,69.8549262 L937.736,69.427 L936.131836,77 L946.070801,77 L951.596191,50.7880859 C952.876465,49.6088867 952.876465,49.6088867 953.95459,48.8845215 C955.032715,48.1601562 955.032715,48.1601562 956.616211,48.1601562 C957.121582,48.1601562 957.121582,48.1601562 957.340576,48.4970703 C957.55957,48.8339844 957.55957,48.8339844 957.694336,49.3393555 C957.829102,49.8447266 957.829102,49.8447266 957.947021,50.4343262 C958.064941,51.0239258 958.064941,51.0239258 958.334473,51.5292969 C958.604004,52.034668 958.604004,52.034668 959.126221,52.371582 C959.648438,52.7084961 959.648438,52.7084961 960.625488,52.7084961 C961.87207,52.7084961 961.87207,52.7084961 962.81543,52.2536621 C963.758789,51.7988281 963.758789,51.7988281 964.38208,51.0913086 C965.005371,50.3837891 965.005371,50.3837891 965.308594,49.4909668 C965.611816,48.5981445 965.611816,48.5981445 965.611816,47.6884766 C965.611816,46.6777344 965.611816,46.6777344 965.308594,45.734375 C965.005371,44.7910156 965.005371,44.7910156 964.398926,44.0834961 C963.79248,43.3759766 963.79248,43.3759766 962.899658,42.9379883 C962.006836,42.5 962.006836,42.5 960.827637,42.5 C959.581055,42.5 959.581055,42.5 958.469238,42.8706055 C957.357422,43.2412109 957.357422,43.2412109 956.329834,43.8308105 C955.302246,44.4204102 955.302246,44.4204102 954.358887,45.1953125 C953.72998,45.7119141 953.72998,45.7119141 953.116048,46.2434896 L952.505859,46.7788086 L953.381836,42.5 L943.442871,42.5 L938.749,64.646 L938.234854,65.2080078 C937.186377,66.3400391 937.186377,66.3400391 936.148682,67.3642578 C934.851562,68.6445312 934.851562,68.6445312 933.402832,69.5878906 C931.954102,70.53125 931.954102,70.53125 930.286377,71.0703125 C928.618652,71.609375 928.618652,71.609375 926.563477,71.609375 C925.316895,71.609375 925.316895,71.609375 924.390381,71.3566895 C923.463867,71.1040039 923.463867,71.1040039 922.840576,70.4638672 C922.217285,69.8237305 922.217285,69.8237305 921.897217,68.6950684 C921.577148,67.5664062 921.577148,67.5664062 921.577148,65.8144531 C921.577148,65.2080078 921.577148,65.2080078 921.627686,64.517334 C921.678223,63.8266602 921.678223,63.8266602 921.745605,63.0517578 C924.845215,62.8496094 924.845215,62.8496094 927.708984,61.6704102 C930.572754,60.4912109 930.572754,60.4912109 932.779541,58.5708008 C934.986328,56.6503906 934.986328,56.6503906 936.300293,54.072998 C937.614258,51.4956055 937.614258,51.4956055 937.614258,48.4970703 C937.614258,47.2167969 937.614258,47.2167969 937.294189,46.020752 C936.974121,44.824707 936.974121,44.824707 936.11499,43.9150391 C935.255859,43.0053711 935.255859,43.0053711 933.790283,42.4494629 C932.324707,41.8935547 932.324707,41.8935547 930,41.8935547 Z M999.977051,42.1630859 C996.978516,42.1630859 996.978516,42.1630859 994.485352,43.291748 C991.992188,44.4204102 991.992188,44.4204102 990.02124,46.3239746 C988.050293,48.2275391 988.050293,48.2275391 986.584717,50.7038574 C985.119141,53.1801758 985.119141,53.1801758 984.14209,55.8754883 C983.165039,58.5708008 983.165039,58.5708008 982.693359,61.2661133 C982.22168,63.9614258 982.22168,63.9614258 982.22168,66.3198242 L982.226265,66.7859219 L982.226265,66.7859219 L982.227,66.817 L982.293742,66.6965129 C982.694295,65.9234823 982.694295,65.9234823 982.990031,65.0680949 L983.131348,64.6352539 L986.028809,64.6352539 L985.831208,65.1871191 C984.932153,67.6371582 984.932153,67.6371582 983.855713,69.4868164 C983.457031,70.171875 983.457031,70.171875 983.047119,70.7858073 L982.85,71.073 L982.881952,71.1761713 C982.936974,71.345027 982.936974,71.345027 982.996582,71.5083008 C983.771484,73.6308594 983.771484,73.6308594 985.051758,74.9448242 C986.332031,76.2587891 986.332031,76.2587891 987.98291,76.831543 C989.633789,77.4042969 989.633789,77.4042969 991.419434,77.4042969 C993.23877,77.4042969 993.23877,77.4042969 994.788574,76.8483887 C996.338379,76.2924805 996.338379,76.2924805 997.601807,75.3828125 C998.865234,74.4731445 998.865234,74.4731445 999.892822,73.3276367 C1000.92041,72.1821289 1000.92041,72.1821289 1001.69531,71.0029297 C1002.09961,74.0688477 1002.09961,74.0688477 1003.85156,75.7365723 C1005.60352,77.4042969 1005.60352,77.4042969 1008.46729,77.4042969 C1009.81494,77.4042969 1009.81494,77.4042969 1010.80884,76.9831543 C1011.80273,76.5620117 1011.80273,76.5620117 1012.57764,75.7028809 C1013.35254,74.84375 1013.35254,74.84375 1013.99268,73.5297852 C1014.63281,72.2158203 1014.63281,72.2158203 1015.34033,70.4301758 C1015.03711,70.5986328 1015.03711,70.5986328 1014.6665,70.6660156 C1014.2959,70.7333984 1014.2959,70.7333984 1013.82422,70.7333984 C1012.37549,70.7333984 1012.37549,70.7333984 1011.68481,70.1774902 C1010.99414,69.621582 1010.99414,69.621582 1010.99414,68.1728516 C1010.99414,67.6337891 1010.99414,67.6337891 1011.06152,67.0778809 C1011.11206,66.6609497 1011.11206,66.6609497 1011.21945,66.2345428 L1011.29736,65.9492188 L1016.25,42.5 L1006.31104,42.5 L1005.56982,46.1723633 L1005.56982,45.6669922 C1005.56982,44.1845703 1005.56982,44.1845703 1004.23901,43.1738281 C1002.9082,42.1630859 1002.9082,42.1630859 999.977051,42.1630859 Z M709.792969,40.3774414 L699.584473,41.7250977 C696.619629,46.8798828 696.619629,46.8798828 693.806396,49.7099609 C690.993164,52.5400391 690.993164,52.5400391 688.331543,52.7084961 C688.230469,41.8935547 688.230469,41.8935547 679.504395,41.8935547 C675.933105,41.8935547 675.933105,41.8935547 673.17041,43.1569824 C670.407715,44.4204102 670.407715,44.4204102 668.335693,46.4755859 C666.263672,48.5307617 666.263672,48.5307617 664.831787,51.1418457 C663.399902,53.7529297 663.399902,53.7529297 662.50708,56.4819336 C661.614258,59.2109375 661.614258,59.2109375 661.209961,61.7883301 C660.805664,64.3657227 660.805664,64.3657227 660.805664,66.387207 C660.805664,69.3520508 660.805664,69.3520508 661.631104,71.4240723 C662.456543,73.4960938 662.456543,73.4960938 663.922119,74.7932129 C665.387695,76.090332 665.387695,76.090332 667.426025,76.6799316 C669.464355,77.2695312 669.464355,77.2695312 671.856445,77.2695312 C675.023438,77.2695312 675.023438,77.2695312 677.853516,75.8208008 C680.683594,74.3720703 680.683594,74.3720703 682.873535,71.6599121 C685.063477,68.9477539 685.063477,68.9477539 686.46167,65.0563965 C687.859863,61.1650391 687.859863,61.1650391 688.196777,56.3134766 C691.464844,55.3364258 691.464844,55.3364258 694.362305,53.0117188 C697.259766,50.6870117 697.259766,50.6870117 699.786621,46.7788086 C699.98877,49.9794922 699.98877,49.9794922 700.174072,52.3378906 C700.359375,54.6962891 700.359375,54.6962891 700.527832,56.4650879 C700.696289,58.2338867 700.696289,58.2338867 700.8479,59.5141602 C700.999512,60.7944336 700.999512,60.7944336 701.100586,61.8220215 C701.20166,62.8496094 701.20166,62.8496094 701.269043,63.7255859 C701.336426,64.6015625 701.336426,64.6015625 701.336426,65.5449219 C701.336426,67.3642578 701.336426,67.3642578 701.08374,68.5939941 C700.831055,69.8237305 700.831055,69.8237305 700.291992,70.5649414 C699.75293,71.3061523 699.75293,71.3061523 698.92749,71.6262207 C698.102051,71.9462891 698.102051,71.9462891 696.956543,71.9462891 C694.935059,71.9462891 694.935059,71.9462891 693.958008,70.5817871 C692.980957,69.2172852 692.980957,69.2172852 692.980957,66.7915039 C693.250488,67.3642578 693.250488,67.3642578 693.755859,67.5327148 C694.26123,67.7011719 694.26123,67.7011719 694.833984,67.7011719 C696.249023,67.7011719 696.249023,67.7011719 697.192383,66.7746582 C698.135742,65.8481445 698.135742,65.8481445 698.135742,64.5678711 C698.135742,61.6704102 698.135742,61.6704102 694.564453,61.6704102 C693.654785,61.6704102 693.654785,61.6704102 692.761963,62.1252441 C691.869141,62.5800781 691.869141,62.5800781 691.161621,63.4223633 C690.454102,64.2646484 690.454102,64.2646484 690.016113,65.4943848 C689.578125,66.7241211 689.578125,66.7241211 689.578125,68.2402344 C689.578125,69.8237305 689.578125,69.8237305 689.915039,71.4577637 C690.251953,73.0917969 690.251953,73.0917969 691.296387,74.4057617 C692.34082,75.7197266 692.34082,75.7197266 694.210693,76.5620117 C696.080566,77.4042969 696.080566,77.4042969 699.180176,77.4042969 C700.595215,77.4042969 700.595215,77.4042969 702.0271,77.168457 C703.458984,76.9326172 703.458984,76.9326172 704.772949,76.376709 C706.086914,75.8208008 706.086914,75.8208008 707.249268,74.9279785 C708.411621,74.0351562 708.411621,74.0351562 709.321289,72.7211914 C711.544922,71.3061523 711.544922,71.3061523 714.004395,69.4025879 C714.451571,69.0564853 714.451571,69.0564853 714.898748,68.6786403 L715.217,68.403 L715.230841,68.5386725 C715.41425,70.2021109 715.41425,70.2021109 715.891113,71.5083008 C716.666016,73.6308594 716.666016,73.6308594 717.946289,74.9448242 C719.226562,76.2587891 719.226562,76.2587891 720.877441,76.831543 C722.52832,77.4042969 722.52832,77.4042969 724.313965,77.4042969 C726.133301,77.4042969 726.133301,77.4042969 727.683105,76.8483887 C729.23291,76.2924805 729.23291,76.2924805 730.496338,75.3828125 C731.759766,74.4731445 731.759766,74.4731445 732.787354,73.3276367 C733.814941,72.1821289 733.814941,72.1821289 734.589844,71.0029297 C734.994141,74.0688477 734.994141,74.0688477 736.746094,75.7365723 C738.498047,77.4042969 738.498047,77.4042969 741.361816,77.4042969 C742.709473,77.4042969 742.709473,77.4042969 743.703369,76.9831543 C744.697266,76.5620117 744.697266,76.5620117 745.472168,75.7028809 C746.24707,74.84375 746.24707,74.84375 746.887207,73.5297852 C747.527344,72.2158203 747.527344,72.2158203 748.234863,70.4301758 C747.931641,70.5986328 747.931641,70.5986328 747.561035,70.6660156 C747.19043,70.7333984 747.19043,70.7333984 746.71875,70.7333984 C745.27002,70.7333984 745.27002,70.7333984 744.579346,70.1774902 C743.888672,69.621582 743.888672,69.621582 743.888672,68.1728516 C743.888672,67.6337891 743.888672,67.6337891 743.956055,67.0778809 C744.006592,66.6609497 744.006592,66.6609497 744.113983,66.2345428 L744.191895,65.9492188 L749.144531,42.5 L739.205566,42.5 L738.464355,46.1723633 L738.464355,45.6669922 C738.464355,44.1845703 738.464355,44.1845703 737.133545,43.1738281 C735.802734,42.1630859 735.802734,42.1630859 732.871582,42.1630859 C729.873047,42.1630859 729.873047,42.1630859 727.379883,43.291748 C724.886719,44.4204102 724.886719,44.4204102 722.915771,46.3239746 C720.944824,48.2275391 720.944824,48.2275391 719.479248,50.7038574 C718.013672,53.1801758 718.013672,53.1801758 717.036621,55.8754883 C716.05957,58.5708008 716.05957,58.5708008 715.587891,61.2661133 C715.234131,63.2875977 715.234131,63.2875977 715.145691,65.1195679 L715.138,65.325 L714.977234,65.4480591 C714.417114,65.8734131 714.417114,65.8734131 713.7854,66.3366699 C712.521973,67.2631836 712.521973,67.2631836 711.106934,68.0380859 C711.309082,66.8925781 711.309082,66.8925781 711.309082,65.4775391 C711.309082,64.3320312 711.309082,64.3320312 711.258545,63.270752 C711.208008,62.2094727 711.208008,62.2094727 711.090088,60.9123535 C710.972168,59.6152344 710.972168,59.6152344 710.837402,57.9306641 C710.702637,56.2460938 710.702637,56.2460938 710.53418,53.8371582 C710.365723,51.4282227 710.365723,51.4282227 710.18042,48.1433105 C710.009371,45.111084 710.009371,45.111084 709.823969,41.0597422 L709.792969,40.3774414 Z M979.324219,42.5 L969.385254,42.5 L964.702148,64.6352539 C964.432617,65.9492188 964.432617,65.9492188 964.297852,67.0778809 C964.163086,68.206543 964.163086,68.206543 964.163086,69.1499023 C964.163086,71.3398438 964.163086,71.3398438 964.73584,72.8896484 C965.308594,74.4394531 965.308594,74.4394531 966.30249,75.4501953 C967.296387,76.4609375 967.296387,76.4609375 968.644043,76.9326172 C969.991699,77.4042969 969.991699,77.4042969 971.541504,77.4042969 C972.451172,77.4042969 972.451172,77.4042969 973.613525,77.2358398 C974.775879,77.0673828 974.775879,77.0673828 976.056152,76.5957031 C977.336426,76.1240234 977.336426,76.1240234 978.700928,75.2480469 C980.06543,74.3720703 980.06543,74.3720703 981.362549,72.9570312 C982.083171,72.1708984 982.083171,72.1708984 982.772597,71.1871926 L982.85,71.073 L982.776491,70.8328778 C982.322555,69.262938 982.322555,69.262938 982.240021,67.2408556 L982.227,66.817 L982.086914,67.0778809 L982.086914,67.0778809 C981.446777,68.206543 981.446777,68.206543 980.638184,69.0151367 C979.82959,69.8237305 979.82959,69.8237305 978.869385,70.2785645 C977.90918,70.7333984 977.90918,70.7333984 976.898438,70.7333984 C975.449707,70.7333984 975.449707,70.7333984 974.775879,70.1774902 C974.102051,69.621582 974.102051,69.621582 974.102051,68.1728516 C974.102051,67.6337891 974.102051,67.6337891 974.152588,67.0778809 C974.190491,66.6609497 974.190491,66.6609497 974.294724,66.2345428 L974.371582,65.9492188 L979.324219,42.5 Z M501.815918,42.1630859 C498.817383,42.1630859 498.817383,42.1630859 496.324219,43.291748 C493.831055,44.4204102 493.831055,44.4204102 491.860107,46.3239746 C489.88916,48.2275391 489.88916,48.2275391 488.423584,50.7038574 C486.958008,53.1801758 486.958008,53.1801758 485.980957,55.8754883 C485.003906,58.5708008 485.003906,58.5708008 484.532227,61.2661133 C484.060547,63.9614258 484.060547,63.9614258 484.060547,66.3198242 C484.060547,69.3857422 484.060547,69.3857422 484.835449,71.5083008 C485.610352,73.6308594 485.610352,73.6308594 486.890625,74.9448242 C488.170898,76.2587891 488.170898,76.2587891 489.821777,76.831543 C491.472656,77.4042969 491.472656,77.4042969 493.258301,77.4042969 C495.111328,77.4042969 495.111328,77.4042969 496.644287,76.8483887 C498.177246,76.2924805 498.177246,76.2924805 499.423828,75.3996582 C500.67041,74.5068359 500.67041,74.5068359 501.681152,73.3781738 C502.691895,72.2495117 502.691895,72.2495117 503.53418,71.0703125 C503.904785,74.2036133 503.904785,74.2036133 505.639893,75.8039551 C507.375,77.4042969 507.375,77.4042969 510.306152,77.4042969 C511.21582,77.4042969 511.21582,77.4042969 512.327637,77.2358398 C513.439453,77.0673828 513.439453,77.0673828 514.652344,76.5957031 C515.865234,76.1240234 515.865234,76.1240234 517.145508,75.2480469 C518.265747,74.4815674 518.265747,74.4815674 519.347294,73.3023682 L519.43,73.209 L521.23,64.719 L521.100879,65.156123 C520.777441,66.1884277 520.777441,66.1884277 520.346191,67.1452637 C519.807129,68.3413086 519.807129,68.3413086 519.099609,69.2172852 C518.39209,70.0932617 518.39209,70.0932617 517.532959,70.6154785 C516.673828,71.1376953 516.673828,71.1376953 515.663086,71.1376953 C512.833008,71.1376953 512.833008,71.1376953 512.833008,68.1728516 C512.833008,67.6337891 512.833008,67.6337891 512.900391,67.0778809 C512.950928,66.6609497 512.950928,66.6609497 513.058319,66.2345428 L513.13623,65.9492188 L518.088867,42.5 L508.149902,42.5 L507.408691,46.1723633 L507.408691,45.6669922 C507.408691,44.1845703 507.408691,44.1845703 506.077881,43.1738281 C504.74707,42.1630859 504.74707,42.1630859 501.815918,42.1630859 Z M782.600098,40.3774414 L772.391602,41.7250977 C770.774414,46.8461914 770.774414,46.8461914 768.786621,51.916748 C766.798828,56.9873047 766.798828,56.9873047 763.901367,62.1757812 C763.193848,62.5126953 763.193848,62.5126953 762.536865,63.1022949 C761.879883,63.6918945 761.879883,63.6918945 761.374512,64.5004883 C760.869141,65.309082 760.869141,65.309082 760.549072,66.3366699 C760.229004,67.3642578 760.229004,67.3642578 760.229004,68.5771484 C760.229004,70.1606445 760.229004,70.1606445 760.818604,71.7272949 C761.408203,73.2939453 761.408203,73.2939453 762.654785,74.557373 C763.901367,75.8208008 763.901367,75.8208008 765.804932,76.6125488 C767.708496,77.4042969 767.708496,77.4042969 770.302734,77.4042969 C771.717773,77.4042969 771.717773,77.4042969 773.30127,77.1516113 C774.884766,76.8989258 774.884766,76.8989258 776.417725,76.3261719 C777.950684,75.753418 777.950684,75.753418 779.348877,74.8269043 C780.74707,73.9003906 780.74707,73.9003906 781.80835,72.5864258 C782.869629,71.2724609 782.869629,71.2724609 783.49292,69.5036621 C784.116211,67.7348633 784.116211,67.7348633 784.116211,65.4775391 C784.116211,64.3320312 784.116211,64.3320312 784.065674,63.270752 C784.015137,62.2094727 784.015137,62.2094727 783.897217,60.9123535 C783.779297,59.6152344 783.779297,59.6152344 783.644531,57.9306641 C783.509766,56.2460938 783.509766,56.2460938 783.341309,53.8371582 C783.172852,51.4282227 783.172852,51.4282227 782.987549,48.1433105 C782.8165,45.111084 782.8165,45.111084 782.631098,41.0597422 L782.600098,40.3774414 Z M589.986328,42.1630859 C586.987793,42.1630859 586.987793,42.1630859 584.494629,43.291748 C582.001465,44.4204102 582.001465,44.4204102 580.030518,46.3239746 C578.05957,48.2275391 578.05957,48.2275391 576.593994,50.7038574 C575.128418,53.1801758 575.128418,53.1801758 574.151367,55.8754883 C573.174316,58.5708008 573.174316,58.5708008 572.702637,61.2661133 C572.230957,63.9614258 572.230957,63.9614258 572.230957,66.3198242 L572.234,66.719 L572.045654,67.1115723 L572.045654,67.1115723 C571.489746,68.2402344 571.489746,68.2402344 570.815918,69.0488281 C570.14209,69.8574219 570.14209,69.8574219 569.299805,70.2954102 C568.45752,70.7333984 568.45752,70.7333984 567.345703,70.7333984 C565.762207,70.7333984 565.762207,70.7333984 565.172607,69.9248047 C564.583008,69.1162109 564.583008,69.1162109 564.583008,67.8359375 C564.583008,66.8588867 564.583008,66.8588867 564.835693,65.5617676 C565.088379,64.2646484 565.088379,64.2646484 565.442139,62.7485352 C565.795898,61.2324219 565.795898,61.2324219 566.233887,59.581543 C566.671875,57.9306641 566.671875,57.9306641 567.025635,56.2629395 C567.379395,54.5952148 567.379395,54.5952148 567.63208,52.994873 C567.884766,51.3945312 567.884766,51.3945312 567.884766,50.0131836 C567.884766,47.9580078 567.884766,47.9580078 567.312012,46.4755859 C566.739258,44.9931641 566.739258,44.9931641 565.71167,44.0498047 C564.684082,43.1064453 564.684082,43.1064453 563.285889,42.668457 C561.887695,42.2304688 561.887695,42.2304688 560.236816,42.2304688 C559.293457,42.2304688 559.293457,42.2304688 558.147949,42.4326172 C557.002441,42.6347656 557.002441,42.6347656 555.755859,43.2412109 C554.509277,43.8476562 554.509277,43.8476562 553.195312,45.0100098 C551.881348,46.1723633 551.881348,46.1723633 550.634766,48.0927734 C550.365234,46.4755859 550.365234,46.4755859 549.725098,45.3469238 C549.084961,44.2182617 549.084961,44.2182617 548.175293,43.5107422 C547.265625,42.8032227 547.265625,42.8032227 546.086426,42.4831543 C544.907227,42.1630859 544.907227,42.1630859 543.55957,42.1630859 C542.649902,42.1630859 542.649902,42.1630859 541.63916,42.3146973 C540.628418,42.4663086 540.628418,42.4663086 539.550293,42.8874512 C538.472168,43.3085938 538.472168,43.3085938 537.360352,44.0666504 C536.387512,44.72995 536.387512,44.72995 535.414673,45.7672768 L535.136719,46.0712891 L535.87793,42.5 L525.938965,42.5 L521.23,64.719 L521.255859,64.6352539 L524.15332,64.6352539 L523.956226,65.1871191 C523.061719,67.6371582 523.061719,67.6371582 522.030762,69.4868164 C520.885254,71.5419922 520.885254,71.5419922 519.655518,72.9570312 L519.655518,72.9570312 L519.43,73.209 L518.62793,77 L528.566895,77 L533.25,54.8647461 C533.654297,53.5507812 533.654297,53.5507812 534.193359,52.371582 C534.732422,51.1923828 534.732422,51.1923828 535.423096,50.3164062 C536.11377,49.4404297 536.11377,49.4404297 536.9729,48.9350586 C537.832031,48.4296875 537.832031,48.4296875 538.842773,48.4296875 C539.449219,48.4296875 539.449219,48.4296875 539.83667,48.682373 C540.224121,48.9350586 540.224121,48.9350586 540.476807,49.3562012 C540.729492,49.7773438 540.729492,49.7773438 540.830566,50.3164062 C540.931641,50.8554688 540.931641,50.8554688 540.931641,51.4619141 C540.931641,52.1896484 540.931641,52.1896484 540.802266,52.8526953 L540.729492,53.1801758 L535.675781,77 L545.614746,77 L550.297852,54.8647461 C550.702148,53.5507812 550.702148,53.5507812 551.241211,52.3884277 C551.780273,51.2260742 551.780273,51.2260742 552.454102,50.3669434 C553.12793,49.5078125 553.12793,49.5078125 553.936523,49.0024414 C554.745117,48.4970703 554.745117,48.4970703 555.688477,48.4970703 C558.181641,48.4970703 558.181641,48.4970703 558.181641,52.034668 C558.181641,53.6855469 558.181641,53.6855469 557.693115,55.9765625 C557.20459,58.2675781 557.20459,58.2675781 556.631836,60.7270508 C556.059082,63.1865234 556.059082,63.1865234 555.570557,65.5280762 C555.082031,67.8696289 555.082031,67.8696289 555.082031,69.621582 C555.082031,71.1040039 555.082031,71.1040039 555.503174,72.5021973 C555.924316,73.9003906 555.924316,73.9003906 556.867676,74.9953613 C557.811035,76.090332 557.811035,76.090332 559.36084,76.7473145 C560.910645,77.4042969 560.910645,77.4042969 563.20166,77.4042969 C564.583008,77.4042969 564.583008,77.4042969 566.217041,77 C567.851074,76.5957031 567.851074,76.5957031 569.55249,75.2648926 C571.253906,73.934082 571.253906,73.934082 572.921631,71.4072266 L572.953,71.358 L573.005859,71.5083008 L573.005859,71.5083008 C573.780762,73.6308594 573.780762,73.6308594 575.061035,74.9448242 C576.341309,76.2587891 576.341309,76.2587891 577.992188,76.831543 C579.643066,77.4042969 579.643066,77.4042969 581.428711,77.4042969 C583.248047,77.4042969 583.248047,77.4042969 584.797852,76.8483887 C586.347656,76.2924805 586.347656,76.2924805 587.611084,75.3828125 C588.874512,74.4731445 588.874512,74.4731445 589.9021,73.3276367 C590.929688,72.1821289 590.929688,72.1821289 591.70459,71.0029297 C592.108887,74.0688477 592.108887,74.0688477 593.86084,75.7365723 C595.612793,77.4042969 595.612793,77.4042969 598.476562,77.4042969 C599.824219,77.4042969 599.824219,77.4042969 600.818115,76.9831543 C601.812012,76.5620117 601.812012,76.5620117 602.586914,75.7028809 C603.361816,74.84375 603.361816,74.84375 604.001953,73.5297852 C604.64209,72.2158203 604.64209,72.2158203 605.349609,70.4301758 C605.046387,70.5986328 605.046387,70.5986328 604.675781,70.6660156 C604.305176,70.7333984 604.305176,70.7333984 603.833496,70.7333984 C602.384766,70.7333984 602.384766,70.7333984 601.694092,70.1774902 C601.003418,69.621582 601.003418,69.621582 601.003418,68.1728516 C601.003418,67.6337891 601.003418,67.6337891 601.070801,67.0778809 C601.121338,66.6609497 601.121338,66.6609497 601.228729,66.2345428 L601.306641,65.9492188 L606.259277,42.5 L596.320312,42.5 L595.579102,46.1723633 L595.579102,45.6669922 C595.579102,44.1845703 595.579102,44.1845703 594.248291,43.1738281 C592.91748,42.1630859 592.91748,42.1630859 589.986328,42.1630859 Z M853.385742,42.5 L843.446777,42.5 L838.763672,64.6352539 C838.494141,65.9492188 838.494141,65.9492188 838.359375,67.0778809 C838.224609,68.206543 838.224609,68.206543 838.224609,69.1499023 C838.224609,71.3398438 838.224609,71.3398438 838.797363,72.8896484 C839.370117,74.4394531 839.370117,74.4394531 840.364014,75.4501953 C841.35791,76.4609375 841.35791,76.4609375 842.705566,76.9326172 C844.053223,77.4042969 844.053223,77.4042969 845.603027,77.4042969 C846.950684,77.4042969 846.950684,77.4042969 848.264648,76.9831543 C849.578613,76.5620117 849.578613,76.5620117 850.623047,75.6860352 C851.66748,74.8100586 851.66748,74.8100586 852.358154,73.479248 C853.048828,72.1484375 853.048828,72.1484375 853.183594,70.2954102 C852.812988,70.4638672 852.812988,70.4638672 852.375,70.5986328 C851.937012,70.7333984 851.937012,70.7333984 850.959961,70.7333984 C849.51123,70.7333984 849.51123,70.7333984 848.837402,70.1774902 C848.163574,69.621582 848.163574,69.621582 848.163574,68.1728516 C848.163574,67.6337891 848.163574,67.6337891 848.214111,67.0778809 C848.252014,66.6609497 848.252014,66.6609497 848.356247,66.2345428 L848.433105,65.9492188 L853.385742,42.5 Z M457.376953,25.25 C454.749023,25.25 454.749023,25.25 452.104248,25.9912109 C449.459473,26.7324219 449.459473,26.7324219 447.016846,28.0463867 C444.574219,29.3603516 444.574219,29.3603516 442.45166,31.1291504 C440.329102,32.8979492 440.329102,32.8979492 438.762451,34.9362793 C437.195801,36.9746094 437.195801,36.9746094 436.302979,39.1982422 C435.410156,41.421875 435.410156,41.421875 435.410156,43.6118164 C435.410156,45.3300781 435.410156,45.3300781 435.932373,46.526123 C436.45459,47.722168 436.45459,47.722168 437.414795,48.4633789 C438.375,49.2045898 438.375,49.2045898 439.739502,49.5415039 C441.104004,49.878418 441.104004,49.878418 442.788574,49.878418 C442.788574,49.6425781 442.788574,49.6425781 442.636963,49.3898926 C442.485352,49.137207 442.485352,49.137207 442.316895,48.6486816 C442.148438,48.1601562 442.148438,48.1601562 441.996826,47.3347168 C441.845215,46.5092773 441.845215,46.5092773 441.845215,45.1279297 C441.845215,39.1645508 441.845215,39.1645508 444.742676,35.239502 C447.51416,31.4851074 447.51416,31.4851074 452.350947,29.7497771 L452.794922,29.5961914 L435.275391,77 L440.800781,77 L452.323242,45.8691406 L450.941895,77 L460.40918,77 L473.380371,46.0039062 L468.966797,77 L478.905762,77 L486.149414,26.2270508 L476.210449,26.2270508 L461.015625,62.5800781 L462.599121,26.2270508 C459.971191,25.25 459.971191,25.25 457.376953,25.25 Z M882.730957,42.5 L864.975586,42.5 C863.122559,42.5 863.122559,42.5 861.640137,43.1906738 C860.157715,43.8813477 860.157715,43.8813477 859.130127,44.9257812 C858.102539,45.9702148 858.102539,45.9702148 857.546631,47.1999512 C856.990723,48.4296875 856.990723,48.4296875 856.990723,49.4741211 C856.990723,50.215332 856.990723,50.215332 857.260254,50.7880859 C857.529785,51.3608398 857.529785,51.3608398 857.984619,51.7314453 C858.439453,52.1020508 858.439453,52.1020508 858.995361,52.3041992 C859.55127,52.5063477 859.55127,52.5063477 860.157715,52.5063477 C860.865234,52.5063477 860.865234,52.5063477 861.522217,52.2873535 C862.179199,52.0683594 862.179199,52.0683594 862.701416,51.6303711 C863.223633,51.1923828 863.223633,51.1923828 863.543701,50.501709 C863.86377,49.8110352 863.86377,49.8110352 863.86377,48.8339844 C863.86377,48.2275391 863.86377,48.2275391 863.74585,47.9916992 C863.62793,47.7558594 863.62793,47.7558594 863.493164,47.6547852 C863.358398,47.5537109 863.358398,47.5537109 863.240479,47.5200195 C863.122559,47.4863281 863.122559,47.4863281 863.122559,47.3178711 C863.122559,46.9472656 863.122559,46.9472656 863.408936,46.7282715 C863.695312,46.5092773 863.695312,46.5092773 864.217529,46.4082031 C864.739746,46.3071289 864.739746,46.3071289 865.43042,46.2734375 C865.948425,46.2481689 865.948425,46.2481689 866.532761,46.2418518 L866.929688,46.2397461 L870.770508,46.2397461 L853.183594,77 L871.478027,77 C873.46582,77 873.46582,77 875.032471,76.2924805 C876.599121,75.5849609 876.599121,75.5849609 877.677246,74.5068359 C878.755371,73.4287109 878.755371,73.4287109 879.328125,72.1147461 C879.900879,70.8007812 879.900879,70.8007812 879.900879,69.621582 C879.900879,68.206543 879.900879,68.206543 879.176514,67.2631836 C878.452148,66.3198242 878.452148,66.3198242 876.834961,66.3198242 C875.891602,66.3198242 875.891602,66.3198242 875.167236,66.6062012 C874.442871,66.8925781 874.442871,66.8925781 873.971191,67.3137207 C873.499512,67.7348633 873.499512,67.7348633 873.246826,68.2570801 C872.994141,68.7792969 872.994141,68.7792969 872.994141,69.284668 C872.994141,69.8574219 872.994141,69.8574219 873.314209,70.2617188 C873.634277,70.6660156 873.634277,70.6660156 874.308105,70.7333984 C874.139648,71.5419922 874.139648,71.5419922 873.22998,71.8283691 C872.320312,72.1147461 872.320312,72.1147461 871.040039,72.1147461 C870.33252,72.1147461 870.33252,72.1147461 869.608154,72.064209 C868.883789,72.0136719 868.883789,72.0136719 868.17627,71.9294434 C867.46875,71.8452148 867.46875,71.8452148 866.862305,71.777832 C866.377148,71.7239258 866.377148,71.7239258 865.999805,71.691582 L865.817871,71.6767578 L882.730957,42.5 Z M912.27832,42.5 L894.522949,42.5 C892.669922,42.5 892.669922,42.5 891.1875,43.1906738 C889.705078,43.8813477 889.705078,43.8813477 888.67749,44.9257812 C887.649902,45.9702148 887.649902,45.9702148 887.093994,47.1999512 C886.538086,48.4296875 886.538086,48.4296875 886.538086,49.4741211 C886.538086,50.215332 886.538086,50.215332 886.807617,50.7880859 C887.077148,51.3608398 887.077148,51.3608398 887.531982,51.7314453 C887.986816,52.1020508 887.986816,52.1020508 888.542725,52.3041992 C889.098633,52.5063477 889.098633,52.5063477 889.705078,52.5063477 C890.412598,52.5063477 890.412598,52.5063477 891.06958,52.2873535 C891.726562,52.0683594 891.726562,52.0683594 892.248779,51.6303711 C892.770996,51.1923828 892.770996,51.1923828 893.091064,50.501709 C893.411133,49.8110352 893.411133,49.8110352 893.411133,48.8339844 C893.411133,48.2275391 893.411133,48.2275391 893.293213,47.9916992 C893.175293,47.7558594 893.175293,47.7558594 893.040527,47.6547852 C892.905762,47.5537109 892.905762,47.5537109 892.787842,47.5200195 C892.669922,47.4863281 892.669922,47.4863281 892.669922,47.3178711 C892.669922,46.9472656 892.669922,46.9472656 892.956299,46.7282715 C893.242676,46.5092773 893.242676,46.5092773 893.764893,46.4082031 C894.287109,46.3071289 894.287109,46.3071289 894.977783,46.2734375 C895.495789,46.2481689 895.495789,46.2481689 896.080124,46.2418518 L896.477051,46.2397461 L900.317871,46.2397461 L882.730957,77 L901.025391,77 C903.013184,77 903.013184,77 904.579834,76.2924805 C906.146484,75.5849609 906.146484,75.5849609 907.224609,74.5068359 C908.302734,73.4287109 908.302734,73.4287109 908.875488,72.1147461 C909.448242,70.8007812 909.448242,70.8007812 909.448242,69.621582 C909.448242,68.206543 909.448242,68.206543 908.723877,67.2631836 C907.999512,66.3198242 907.999512,66.3198242 906.382324,66.3198242 C905.438965,66.3198242 905.438965,66.3198242 904.7146,66.6062012 C903.990234,66.8925781 903.990234,66.8925781 903.518555,67.3137207 C903.046875,67.7348633 903.046875,67.7348633 902.794189,68.2570801 C902.541504,68.7792969 902.541504,68.7792969 902.541504,69.284668 C902.541504,69.8574219 902.541504,69.8574219 902.861572,70.2617188 C903.181641,70.6660156 903.181641,70.6660156 903.855469,70.7333984 C903.687012,71.5419922 903.687012,71.5419922 902.777344,71.8283691 C901.867676,72.1147461 901.867676,72.1147461 900.587402,72.1147461 C899.879883,72.1147461 899.879883,72.1147461 899.155518,72.064209 C898.431152,72.0136719 898.431152,72.0136719 897.723633,71.9294434 C897.016113,71.8452148 897.016113,71.8452148 896.409668,71.777832 C895.924512,71.7239258 895.924512,71.7239258 895.547168,71.691582 L895.365234,71.6767578 L912.27832,42.5 Z M823.838379,25.25 C820.940918,25.25 820.940918,25.25 818.026611,25.9406738 C815.112305,26.6313477 815.112305,26.6313477 812.433838,27.861084 C809.755371,29.0908203 809.755371,29.0908203 807.413818,30.7753906 C805.072266,32.4599609 805.072266,32.4599609 803.337158,34.4477539 C801.602051,36.4355469 801.602051,36.4355469 800.608154,38.6591797 C799.614258,40.8828125 799.614258,40.8828125 799.614258,43.1738281 C799.614258,45.0605469 799.614258,45.0605469 800.102783,46.3408203 C800.591309,47.6210938 800.591309,47.6210938 801.517822,48.3959961 C802.444336,49.1708984 802.444336,49.1708984 803.825684,49.5246582 C805.207031,49.878418 805.207031,49.878418 806.992676,49.878418 C806.992676,49.6762695 806.992676,49.6762695 806.841064,49.4067383 C806.689453,49.137207 806.689453,49.137207 806.520996,48.6486816 C806.352539,48.1601562 806.352539,48.1601562 806.200928,47.3347168 C806.049316,46.5092773 806.049316,46.5092773 806.049316,45.1953125 C806.049316,41.253418 806.049316,41.253418 807.262207,38.1369629 C808.475098,35.0205078 808.475098,35.0205078 810.766113,32.8642578 C813.057129,30.7080078 813.057129,30.7080078 816.375732,29.5625 C819.694336,28.4169922 819.694336,28.4169922 823.905762,28.4169922 C826.163086,28.4169922 826.163086,28.4169922 827.797119,29.1582031 C829.431152,29.8994141 829.431152,29.8994141 830.45874,31.1965332 C831.486328,32.4936523 831.486328,32.4936523 831.974854,34.1950684 C832.463379,35.8964844 832.463379,35.8964844 832.463379,37.8168945 C832.463379,39.6699219 832.463379,39.6699219 832.059082,41.6071777 C831.654785,43.5444336 831.654785,43.5444336 830.896729,45.3806152 C830.138672,47.2167969 830.138672,47.2167969 829.060547,48.8676758 C827.982422,50.5185547 827.982422,50.5185547 826.634766,51.7819824 C825.287109,53.0454102 825.287109,53.0454102 823.720459,53.8540039 C822.327881,54.5727539 822.327881,54.5727539 820.788891,54.7590965 L820.401855,54.7973633 L825.287109,31.7524414 L815.078613,33.1000977 L805.712402,77 L815.617676,77 L819.829102,57.3242188 L820.199707,57.3242188 C824.849121,57.3242188 824.849121,57.3242188 828.53833,55.6733398 C832.227539,54.0224609 832.227539,54.0224609 834.804932,51.3776855 C837.382324,48.7329102 837.382324,48.7329102 838.746826,45.4311523 C840.111328,42.1293945 840.111328,42.1293945 840.111328,38.8276367 C840.111328,36.1660156 840.111328,36.1660156 839.167969,33.7233887 C838.224609,31.2807617 838.224609,31.2807617 836.219971,29.394043 C834.215332,27.5073242 834.215332,27.5073242 831.149414,26.3786621 C828.083496,25.25 828.083496,25.25 823.838379,25.25 Z M772.795898,49.2045898 C772.998047,51.8662109 772.998047,51.8662109 773.166504,53.8540039 C773.334961,55.8417969 773.334961,55.8417969 773.486572,57.3579102 C773.638184,58.8740234 773.638184,58.8740234 773.756104,60.0195312 C773.874023,61.1650391 773.874023,61.1650391 773.941406,62.0915527 C774.008789,63.0180664 774.008789,63.0180664 774.059326,63.8435059 C774.109863,64.6689453 774.109863,64.6689453 774.109863,65.5449219 C774.109863,67.3642578 774.109863,67.3642578 773.604492,68.5771484 C773.099121,69.7900391 773.099121,69.7900391 772.256836,70.5480957 C771.414551,71.3061523 771.414551,71.3061523 770.336426,71.6262207 C769.258301,71.9462891 769.258301,71.9462891 768.112793,71.9462891 C765.821777,71.9462891 765.821777,71.9462891 764.861572,70.7502441 C763.901367,69.5541992 763.901367,69.5541992 763.901367,67.128418 C764.170898,67.7011719 764.170898,67.7011719 764.67627,67.8696289 C765.181641,68.0380859 765.181641,68.0380859 765.754395,68.0380859 C766.461914,68.0380859 766.461914,68.0380859 767.017822,67.751709 C767.57373,67.465332 767.57373,67.465332 767.978027,66.9768066 C768.382324,66.4882812 768.382324,66.4882812 768.584473,65.8818359 C768.786621,65.2753906 768.786621,65.2753906 768.786621,64.6352539 C768.786621,63.7592773 768.786621,63.7592773 768.331787,63.1865234 C767.876953,62.6137695 767.876953,62.6137695 767.203125,62.2431641 C768.921387,58.9077148 768.921387,58.9077148 770.336426,55.7407227 C771.751465,52.5737305 771.751465,52.5737305 772.795898,49.2045898 Z M576.038086,64.6352539 L575.856139,65.1591816 C574.485123,69.0382996 574.485123,69.0382996 572.921631,71.4072266 L572.953,71.357 L572.891229,71.1761713 C572.28598,69.3187581 572.28598,69.3187581 572.235542,66.7859219 L572.234,66.719 L572.267344,66.6513477 C572.598867,65.9478711 572.598867,65.9478711 572.924326,65.1655566 L573.140625,64.6352539 L576.038086,64.6352539 Z M680.077148,46.0712891 C681.357422,46.0712891 681.357422,46.0712891 681.947021,46.9641113 C682.536621,47.8569336 682.536621,47.8569336 682.705078,50.0805664 C680.750977,51.0239258 680.750977,51.0239258 680.750977,53.6855469 C680.750977,56.1787109 680.750977,56.1787109 682.401855,56.7851562 C681.997559,59.8173828 681.997559,59.8173828 681.205811,62.4284668 C680.414062,65.0395508 680.414062,65.0395508 679.369629,66.9599609 C678.325195,68.8803711 678.325195,68.8803711 677.095459,69.9753418 C675.865723,71.0703125 675.865723,71.0703125 674.619141,71.0703125 C673.64209,71.0703125 673.64209,71.0703125 672.968262,70.8344727 C672.294434,70.5986328 672.294434,70.5986328 671.873291,69.9753418 C671.452148,69.3520508 671.452148,69.3520508 671.266846,68.2739258 C671.081543,67.1958008 671.081543,67.1958008 671.081543,65.4775391 C671.081543,63.7592773 671.081543,63.7592773 671.401611,61.6535645 C671.72168,59.5478516 671.72168,59.5478516 672.311279,57.3916016 C672.900879,55.2353516 672.900879,55.2353516 673.726318,53.1970215 C674.551758,51.1586914 674.551758,51.1586914 675.5625,49.5751953 C676.573242,47.9916992 676.573242,47.9916992 677.71875,47.0314941 C678.864258,46.0712891 678.864258,46.0712891 680.077148,46.0712891 Z M503.938477,46.4418945 C504.780762,46.4418945 504.780762,46.4418945 505.319824,46.7282715 C505.858887,47.0146484 505.858887,47.0146484 506.178955,47.435791 C506.499023,47.8569336 506.499023,47.8569336 506.633789,48.3117676 C506.741602,48.6756348 506.741602,48.6756348 506.763164,48.9424707 L506.768555,49.0698242 L503.466797,64.6352539 C503.129883,66.1513672 503.129883,66.1513672 502.4729,67.296875 C501.815918,68.4423828 501.815918,68.4423828 501.02417,69.2004395 C500.232422,69.9584961 500.232422,69.9584961 499.373291,70.3459473 C498.51416,70.7333984 498.51416,70.7333984 497.739258,70.7333984 C497.267578,70.7333984 497.267578,70.7333984 496.661133,70.6323242 C496.054688,70.53125 496.054688,70.53125 495.532471,70.0090332 C495.010254,69.4868164 495.010254,69.4868164 494.639648,68.4086914 C494.269043,67.3305664 494.269043,67.3305664 494.269043,65.3427734 C494.269043,63.7255859 494.269043,63.7255859 494.572266,61.6872559 C494.875488,59.6489258 494.875488,59.6489258 495.465088,57.5432129 C496.054688,55.4375 496.054688,55.4375 496.896973,53.449707 C497.739258,51.4619141 497.739258,51.4619141 498.817383,49.8952637 C499.895508,48.3286133 499.895508,48.3286133 501.192627,47.3852539 C502.489746,46.4418945 502.489746,46.4418945 503.938477,46.4418945 Z M592.108887,46.4418945 C592.951172,46.4418945 592.951172,46.4418945 593.490234,46.7282715 C594.029297,47.0146484 594.029297,47.0146484 594.349365,47.435791 C594.669434,47.8569336 594.669434,47.8569336 594.804199,48.3117676 C594.912012,48.6756348 594.912012,48.6756348 594.933574,48.9424707 L594.938965,49.0698242 L591.637207,64.6352539 C591.300293,66.1513672 591.300293,66.1513672 590.643311,67.296875 C589.986328,68.4423828 589.986328,68.4423828 589.19458,69.2004395 C588.402832,69.9584961 588.402832,69.9584961 587.543701,70.3459473 C586.68457,70.7333984 586.68457,70.7333984 585.909668,70.7333984 C585.437988,70.7333984 585.437988,70.7333984 584.831543,70.6323242 C584.225098,70.53125 584.225098,70.53125 583.702881,70.0090332 C583.180664,69.4868164 583.180664,69.4868164 582.810059,68.4086914 C582.439453,67.3305664 582.439453,67.3305664 582.439453,65.3427734 C582.439453,63.7255859 582.439453,63.7255859 582.742676,61.6872559 C583.045898,59.6489258 583.045898,59.6489258 583.635498,57.5432129 C584.225098,55.4375 584.225098,55.4375 585.067383,53.449707 C585.909668,51.4619141 585.909668,51.4619141 586.987793,49.8952637 C588.065918,48.3286133 588.065918,48.3286133 589.363037,47.3852539 C590.660156,46.4418945 590.660156,46.4418945 592.108887,46.4418945 Z M734.994141,46.4418945 C735.836426,46.4418945 735.836426,46.4418945 736.375488,46.7282715 C736.914551,47.0146484 736.914551,47.0146484 737.234619,47.435791 C737.554688,47.8569336 737.554688,47.8569336 737.689453,48.3117676 C737.797266,48.6756348 737.797266,48.6756348 737.818828,48.9424707 L737.824219,49.0698242 L734.522461,64.6352539 C734.185547,66.1513672 734.185547,66.1513672 733.528564,67.296875 C732.871582,68.4423828 732.871582,68.4423828 732.079834,69.2004395 C731.288086,69.9584961 731.288086,69.9584961 730.428955,70.3459473 C729.569824,70.7333984 729.569824,70.7333984 728.794922,70.7333984 C728.323242,70.7333984 728.323242,70.7333984 727.716797,70.6323242 C727.110352,70.53125 727.110352,70.53125 726.588135,70.0090332 C726.065918,69.4868164 726.065918,69.4868164 725.695312,68.4086914 C725.324707,67.3305664 725.324707,67.3305664 725.324707,65.3427734 C725.324707,63.7255859 725.324707,63.7255859 725.62793,61.6872559 C725.931152,59.6489258 725.931152,59.6489258 726.520752,57.5432129 C727.110352,55.4375 727.110352,55.4375 727.952637,53.449707 C728.794922,51.4619141 728.794922,51.4619141 729.873047,49.8952637 C730.951172,48.3286133 730.951172,48.3286133 732.248291,47.3852539 C733.54541,46.4418945 733.54541,46.4418945 734.994141,46.4418945 Z M1002.09961,46.4418945 C1002.94189,46.4418945 1002.94189,46.4418945 1003.48096,46.7282715 C1004.02002,47.0146484 1004.02002,47.0146484 1004.34009,47.435791 C1004.66016,47.8569336 1004.66016,47.8569336 1004.79492,48.3117676 C1004.90273,48.6756348 1004.90273,48.6756348 1004.9243,48.9424707 L1004.92969,49.0698242 L1001.62793,64.6352539 C1001.29102,66.1513672 1001.29102,66.1513672 1000.63403,67.296875 C999.977051,68.4423828 999.977051,68.4423828 999.185303,69.2004395 C998.393555,69.9584961 998.393555,69.9584961 997.534424,70.3459473 C996.675293,70.7333984 996.675293,70.7333984 995.900391,70.7333984 C995.428711,70.7333984 995.428711,70.7333984 994.822266,70.6323242 C994.21582,70.53125 994.21582,70.53125 993.693604,70.0090332 C993.171387,69.4868164 993.171387,69.4868164 992.800781,68.4086914 C992.430176,67.3305664 992.430176,67.3305664 992.430176,65.3427734 C992.430176,63.7255859 992.430176,63.7255859 992.733398,61.6872559 C993.036621,59.6489258 993.036621,59.6489258 993.626221,57.5432129 C994.21582,55.4375 994.21582,55.4375 995.058105,53.449707 C995.900391,51.4619141 995.900391,51.4619141 996.978516,49.8952637 C998.056641,48.3286133 998.056641,48.3286133 999.35376,47.3852539 C1000.65088,46.4418945 1000.65088,46.4418945 1002.09961,46.4418945 Z M941.118164,64.6352539 L940.695646,65.3255839 C939.402309,67.3883231 939.402309,67.3883231 937.799561,69.3520508 L937.799561,69.3520508 L937.736,69.427 L938.749,64.646 L938.759766,64.6352539 L941.118164,64.6352539 Z M718.92334,64.6352539 L718.476163,65.1480037 C716.911044,66.9148534 716.911044,66.9148534 715.345925,68.2928598 L715.217,68.403 L715.189574,68.1172308 C715.134552,67.4766954 715.134552,67.4766954 715.120796,66.7859219 L715.116211,66.3198242 C715.116211,66.0250244 715.116211,66.0250244 715.123581,65.7249603 L715.138,65.325 L715.342692,65.1687012 C715.521444,65.0311279 715.521444,65.0311279 715.69224,64.8977661 L716.025879,64.6352539 L718.92334,64.6352539 Z M930.572754,45.5322266 C931.549805,45.5322266 931.549805,45.5322266 931.92041,46.3071289 C932.291016,47.0820312 932.291016,47.0820312 932.291016,48.3623047 C932.291016,50.5185547 932.291016,50.5185547 931.465576,52.5231934 C930.640137,54.527832 930.640137,54.527832 929.258789,56.0944824 C927.877441,57.6611328 927.877441,57.6611328 926.058105,58.6381836 C924.23877,59.6152344 924.23877,59.6152344 922.284668,59.75 C922.790039,57.1894531 922.790039,57.1894531 923.64917,54.645752 C924.508301,52.1020508 924.508301,52.1020508 925.620117,50.0805664 C926.731934,48.059082 926.731934,48.059082 927.995361,46.7956543 C929.258789,45.5322266 929.258789,45.5322266 930.572754,45.5322266 Z M760.36377,25.1152344 C759.353027,25.1152344 759.353027,25.1152344 758.510742,25.4689941 C757.668457,25.8227539 757.668457,25.8227539 757.062012,26.4628906 C756.455566,27.1030273 756.455566,27.1030273 756.101807,27.9958496 C755.748047,28.8886719 755.748047,28.8886719 755.748047,29.9331055 C755.748047,31.2807617 755.748047,31.2807617 756.270264,32.0725098 C756.79248,32.8642578 756.79248,32.8642578 757.415771,33.4033203 C758.039062,33.9423828 758.039062,33.9423828 758.561279,34.3972168 C759.083496,34.8520508 759.083496,34.8520508 759.083496,35.5258789 C759.083496,36.3681641 759.083496,36.3681641 758.258057,37.6821289 C757.524333,38.8500977 757.524333,38.8500977 756.271512,40.1777886 L755.950195,40.512207 L756.994629,41.5229492 C758.915039,40.2763672 758.915039,40.2763672 760.431152,38.7939453 C761.947266,37.3115234 761.947266,37.3115234 763.008545,35.7954102 C764.069824,34.2792969 764.069824,34.2792969 764.642578,32.7631836 C765.215332,31.2470703 765.215332,31.2470703 765.215332,29.9331055 C765.215332,28.8886719 765.215332,28.8886719 764.861572,27.9958496 C764.507812,27.1030273 764.507812,27.1030273 763.85083,26.4628906 C763.193848,25.8227539 763.193848,25.8227539 762.301025,25.4689941 C761.408203,25.1152344 761.408203,25.1152344 760.36377,25.1152344 Z M976.224609,27.8105469 C975.079102,27.8105469 975.079102,27.8105469 974.085205,28.2485352 C973.091309,28.6865234 973.091309,28.6865234 972.350098,29.4445801 C971.608887,30.2026367 971.608887,30.2026367 971.187744,31.1965332 C970.766602,32.1904297 970.766602,32.1904297 970.766602,33.3359375 C970.766602,34.4814453 970.766602,34.4814453 971.187744,35.4753418 C971.608887,36.4692383 971.608887,36.4692383 972.350098,37.1936035 C973.091309,37.9179688 973.091309,37.9179688 974.085205,38.3391113 C975.079102,38.7602539 975.079102,38.7602539 976.224609,38.7602539 C977.370117,38.7602539 977.370117,38.7602539 978.364014,38.3391113 C979.35791,37.9179688 979.35791,37.9179688 980.115967,37.1936035 C980.874023,36.4692383 980.874023,36.4692383 981.312012,35.4753418 C981.75,34.4814453 981.75,34.4814453 981.75,33.3359375 C981.75,32.1904297 981.75,32.1904297 981.312012,31.1965332 C980.874023,30.2026367 980.874023,30.2026367 980.115967,29.4445801 C979.35791,28.6865234 979.35791,28.6865234 978.364014,28.2485352 C977.370117,27.8105469 977.370117,27.8105469 976.224609,27.8105469 Z M850.286133,27.8105469 C849.140625,27.8105469 849.140625,27.8105469 848.146729,28.2485352 C847.152832,28.6865234 847.152832,28.6865234 846.411621,29.4445801 C845.67041,30.2026367 845.67041,30.2026367 845.249268,31.1965332 C844.828125,32.1904297 844.828125,32.1904297 844.828125,33.3359375 C844.828125,34.4814453 844.828125,34.4814453 845.249268,35.4753418 C845.67041,36.4692383 845.67041,36.4692383 846.411621,37.1936035 C847.152832,37.9179688 847.152832,37.9179688 848.146729,38.3391113 C849.140625,38.7602539 849.140625,38.7602539 850.286133,38.7602539 C851.431641,38.7602539 851.431641,38.7602539 852.425537,38.3391113 C853.419434,37.9179688 853.419434,37.9179688 854.17749,37.1936035 C854.935547,36.4692383 854.935547,36.4692383 855.373535,35.4753418 C855.811523,34.4814453 855.811523,34.4814453 855.811523,33.3359375 C855.811523,32.1904297 855.811523,32.1904297 855.373535,31.1965332 C854.935547,30.2026367 854.935547,30.2026367 854.17749,29.4445801 C853.419434,28.6865234 853.419434,28.6865234 852.425537,28.2485352 C851.431641,27.8105469 851.431641,27.8105469 850.286133,27.8105469 Z" id="path-1"></path>
        <filter x="-1.7%" y="-15.9%" width="103.5%" height="131.9%" filterUnits="objectBoundingBox" id="filter-2">
            <feOffset dx="0" dy="0" in="SourceAlpha" result="shadowOffsetOuter1"></feOffset>
            <feGaussianBlur stdDeviation="8.5" in="shadowOffsetOuter1" result="shadowBlurOuter1"></feGaussianBlur>
            <feColorMatrix values="0 0 0 0 0.356862745   0 0 0 0 0.894117647   0 0 0 0 0.968627451  0 0 0 0.24 0" type="matrix" in="shadowBlurOuter1" result="shadowMatrixOuter1"></feColorMatrix>
            <feOffset dx="0" dy="1" in="SourceAlpha" result="shadowOffsetOuter2"></feOffset>
            <feGaussianBlur stdDeviation="0.5" in="shadowOffsetOuter2" result="shadowBlurOuter2"></feGaussianBlur>
            <feColorMatrix values="0 0 0 0 0.278141617   0 0 0 0 0.678852134   0 0 0 0 0.73394983  0 0 0 0.24 0" type="matrix" in="shadowBlurOuter2" result="shadowMatrixOuter2"></feColorMatrix>
            <feMerge>
                <feMergeNode in="shadowMatrixOuter1"></feMergeNode>
                <feMergeNode in="shadowMatrixOuter2"></feMergeNode>
            </feMerge>
        </filter>
    </defs>
    <g id="Page-1" stroke="none" stroke-width="1" fill="none" fill-rule="evenodd">
        <g id="TopBar">
            <use fill="black" fill-opacity="1" filter="url(#filter-2)" xlink:href="#path-1"></use>
            <use fill="#D6162E" fill-rule="evenodd" xlink:href="#path-1"></use>
        </g>
    </g>
</svg>
